<?xml version="1.0" encoding="utf-8" standalone="no"?>
<!DOCTYPE svg PUBLIC "-//W3C//DTD SVG 1.1//EN"
  "http://www.w3.org/Graphics/SVG/1.1/DTD/svg11.dtd">
<svg xmlns:xlink="http://www.w3.org/1999/xlink" width="911.61pt" height="686pt" viewBox="0 0 911.61 686" xmlns="http://www.w3.org/2000/svg" version="1.1">
 <metadata>
  <rdf:RDF xmlns:dc="http://purl.org/dc/elements/1.1/" xmlns:cc="http://creativecommons.org/ns#" xmlns:rdf="http://www.w3.org/1999/02/22-rdf-syntax-ns#">
   <cc:Work>
    <dc:type rdf:resource="http://purl.org/dc/dcmitype/StillImage"/>
    <dc:date>2026-07-12T18:46:03.314615</dc:date>
    <dc:format>image/svg+xml</dc:format>
    <dc:creator>
     <cc:Agent>
      <dc:title>Matplotlib v3.11.0, https://matplotlib.org/</dc:title>
     </cc:Agent>
    </dc:creator>
   </cc:Work>
  </rdf:RDF>
 </metadata>
 <defs>
  <style type="text/css">*{stroke-linejoin: round; stroke-linecap: butt}</style>
 </defs>
 <g id="figure_1">
  <g id="patch_1">
   <path d="M 0 686 
L 911.61 686 
L 911.61 0 
L 0 0 
L 0 686 
z
" style="fill: none"/>
  </g>
  <g id="axes_1">
   <g id="patch_2">
    <path d="M 48.99 93.08 
C 53.763656 93.08 58.342438 91.183406 61.717922 87.807922 
C 65.093406 84.432438 66.99 79.853656 66.99 75.08 
C 66.99 70.306344 65.093406 65.727562 61.717922 62.352078 
C 58.342438 58.976594 53.763656 57.08 48.99 57.08 
C 44.216344 57.08 39.637562 58.976594 36.262078 62.352078 
C 32.886594 65.727562 30.99 70.306344 30.99 75.08 
C 30.99 79.853656 32.886594 84.432438 36.262078 87.807922 
C 39.637562 91.183406 44.216344 93.08 48.99 93.08 
L 48.99 93.08 
z
" clip-path="url(#p16f58f17fd)" style="fill: none; stroke: #000000; stroke-width: 2; stroke-linejoin: miter"/>
   </g>
   <g id="patch_3">
    <path d="M 149.79 111.08 
C 151.698826 111.08 153.531425 110.320913 154.881169 108.971169 
C 156.230913 107.621425 156.99 105.788826 156.99 103.88 
C 156.99 101.971174 156.230913 100.138575 154.881169 98.788831 
C 153.531425 97.439087 151.698826 96.68 149.79 96.68 
" clip-path="url(#p16f58f17fd)" style="fill: none; stroke: #000000; stroke-width: 2; stroke-linejoin: miter"/>
   </g>
   <g id="patch_4">
    <path d="M 149.79 96.68 
C 151.698826 96.68 153.531425 95.920913 154.881169 94.571169 
C 156.230913 93.221425 156.99 91.388826 156.99 89.48 
C 156.99 87.571174 156.230913 85.738575 154.881169 84.388831 
C 153.531425 83.039087 151.698826 82.28 149.79 82.28 
" clip-path="url(#p16f58f17fd)" style="fill: none; stroke: #000000; stroke-width: 2; stroke-linejoin: miter"/>
   </g>
   <g id="patch_5">
    <path d="M 149.79 82.28 
C 151.698826 82.28 153.531425 81.520913 154.881169 80.171169 
C 156.230913 78.821425 156.99 76.988826 156.99 75.08 
C 156.99 73.171174 156.230913 71.338575 154.881169 69.988831 
C 153.531425 68.639087 151.698826 67.88 149.79 67.88 
" clip-path="url(#p16f58f17fd)" style="fill: none; stroke: #000000; stroke-width: 2; stroke-linejoin: miter"/>
   </g>
   <g id="patch_6">
    <path d="M 149.79 67.88 
C 151.698826 67.88 153.531425 67.120913 154.881169 65.771169 
C 156.230913 64.421425 156.99 62.588826 156.99 60.68 
C 156.99 58.771174 156.230913 56.938575 154.881169 55.588831 
C 153.531425 54.239087 151.698826 53.48 149.79 53.48 
" clip-path="url(#p16f58f17fd)" style="fill: none; stroke: #000000; stroke-width: 2; stroke-linejoin: miter"/>
   </g>
   <g id="patch_7">
    <path d="M 149.79 53.48 
C 151.698826 53.48 153.531425 52.720913 154.881169 51.371169 
C 156.230913 50.021425 156.99 48.188826 156.99 46.28 
C 156.99 44.371174 156.230913 42.538575 154.881169 41.188831 
C 153.531425 39.839087 151.698826 39.08 149.79 39.08 
" clip-path="url(#p16f58f17fd)" style="fill: none; stroke: #000000; stroke-width: 2; stroke-linejoin: miter"/>
   </g>
   <g id="patch_8">
    <path d="M 185.79 96.68 
C 183.881174 96.68 182.048575 97.439087 180.698831 98.788831 
C 179.349087 100.138575 178.59 101.971174 178.59 103.88 
C 178.59 105.788826 179.349087 107.621425 180.698831 108.971169 
C 182.048575 110.320913 183.881174 111.08 185.79 111.08 
" clip-path="url(#p16f58f17fd)" style="fill: none; stroke: #000000; stroke-width: 2; stroke-linejoin: miter"/>
   </g>
   <g id="patch_9">
    <path d="M 185.79 82.28 
C 183.881174 82.28 182.048575 83.039087 180.698831 84.388831 
C 179.349087 85.738575 178.59 87.571174 178.59 89.48 
C 178.59 91.388826 179.349087 93.221425 180.698831 94.571169 
C 182.048575 95.920913 183.881174 96.68 185.79 96.68 
" clip-path="url(#p16f58f17fd)" style="fill: none; stroke: #000000; stroke-width: 2; stroke-linejoin: miter"/>
   </g>
   <g id="patch_10">
    <path d="M 185.79 67.88 
C 183.881174 67.88 182.048575 68.639087 180.698831 69.988831 
C 179.349087 71.338575 178.59 73.171174 178.59 75.08 
C 178.59 76.988826 179.349087 78.821425 180.698831 80.171169 
C 182.048575 81.520913 183.881174 82.28 185.79 82.28 
" clip-path="url(#p16f58f17fd)" style="fill: none; stroke: #000000; stroke-width: 2; stroke-linejoin: miter"/>
   </g>
   <g id="patch_11">
    <path d="M 185.79 53.48 
C 183.881174 53.48 182.048575 54.239087 180.698831 55.588831 
C 179.349087 56.938575 178.59 58.771174 178.59 60.68 
C 178.59 62.588826 179.349087 64.421425 180.698831 65.771169 
C 182.048575 67.120913 183.881174 67.88 185.79 67.88 
" clip-path="url(#p16f58f17fd)" style="fill: none; stroke: #000000; stroke-width: 2; stroke-linejoin: miter"/>
   </g>
   <g id="patch_12">
    <path d="M 185.79 39.08 
C 183.881174 39.08 182.048575 39.839087 180.698831 41.188831 
C 179.349087 42.538575 178.59 44.371174 178.59 46.28 
C 178.59 48.188826 179.349087 50.021425 180.698831 51.371169 
C 182.048575 52.720913 183.881174 53.48 185.79 53.48 
" clip-path="url(#p16f58f17fd)" style="fill: none; stroke: #000000; stroke-width: 2; stroke-linejoin: miter"/>
   </g>
   <g id="patch_13">
    <path d="M 272.19 345.08 
C 274.098826 345.08 275.931425 344.320913 277.281169 342.971169 
C 278.630913 341.621425 279.39 339.788826 279.39 337.88 
C 279.39 335.971174 278.630913 334.138575 277.281169 332.788831 
C 275.931425 331.439087 274.098826 330.68 272.19 330.68 
" clip-path="url(#p16f58f17fd)" style="fill: none; stroke: #000000; stroke-width: 2; stroke-linejoin: miter"/>
   </g>
   <g id="patch_14">
    <path d="M 272.19 330.68 
C 274.098826 330.68 275.931425 329.920913 277.281169 328.571169 
C 278.630913 327.221425 279.39 325.388826 279.39 323.48 
C 279.39 321.571174 278.630913 319.738575 277.281169 318.388831 
C 275.931425 317.039087 274.098826 316.28 272.19 316.28 
" clip-path="url(#p16f58f17fd)" style="fill: none; stroke: #000000; stroke-width: 2; stroke-linejoin: miter"/>
   </g>
   <g id="patch_15">
    <path d="M 308.19 359.48 
C 306.281174 359.48 304.448575 360.239087 303.098831 361.588831 
C 301.749087 362.938575 300.99 364.771174 300.99 366.68 
C 300.99 368.588826 301.749087 370.421425 303.098831 371.771169 
C 304.448575 373.120913 306.281174 373.88 308.19 373.88 
" clip-path="url(#p16f58f17fd)" style="fill: none; stroke: #000000; stroke-width: 2; stroke-linejoin: miter"/>
   </g>
   <g id="patch_16">
    <path d="M 308.19 345.08 
C 306.281174 345.08 304.448575 345.839087 303.098831 347.188831 
C 301.749087 348.538575 300.99 350.371174 300.99 352.28 
C 300.99 354.188826 301.749087 356.021425 303.098831 357.371169 
C 304.448575 358.720913 306.281174 359.48 308.19 359.48 
" clip-path="url(#p16f58f17fd)" style="fill: none; stroke: #000000; stroke-width: 2; stroke-linejoin: miter"/>
   </g>
   <g id="patch_17">
    <path d="M 308.19 330.68 
C 306.281174 330.68 304.448575 331.439087 303.098831 332.788831 
C 301.749087 334.138575 300.99 335.971174 300.99 337.88 
C 300.99 339.788826 301.749087 341.621425 303.098831 342.971169 
C 304.448575 344.320913 306.281174 345.08 308.19 345.08 
" clip-path="url(#p16f58f17fd)" style="fill: none; stroke: #000000; stroke-width: 2; stroke-linejoin: miter"/>
   </g>
   <g id="patch_18">
    <path d="M 308.19 316.28 
C 306.281174 316.28 304.448575 317.039087 303.098831 318.388831 
C 301.749087 319.738575 300.99 321.571174 300.99 323.48 
C 300.99 325.388826 301.749087 327.221425 303.098831 328.571169 
C 304.448575 329.920913 306.281174 330.68 308.19 330.68 
" clip-path="url(#p16f58f17fd)" style="fill: none; stroke: #000000; stroke-width: 2; stroke-linejoin: miter"/>
   </g>
   <g id="patch_19">
    <path d="M 308.19 301.88 
C 306.281174 301.88 304.448575 302.639087 303.098831 303.988831 
C 301.749087 305.338575 300.99 307.171174 300.99 309.08 
C 300.99 310.988826 301.749087 312.821425 303.098831 314.171169 
C 304.448575 315.520913 306.281174 316.28 308.19 316.28 
" clip-path="url(#p16f58f17fd)" style="fill: none; stroke: #000000; stroke-width: 2; stroke-linejoin: miter"/>
   </g>
   <g id="patch_20">
    <path d="M 308.19 287.48 
C 306.281174 287.48 304.448575 288.239087 303.098831 289.588831 
C 301.749087 290.938575 300.99 292.771174 300.99 294.68 
C 300.99 296.588826 301.749087 298.421425 303.098831 299.771169 
C 304.448575 301.120913 306.281174 301.88 308.19 301.88 
" clip-path="url(#p16f58f17fd)" style="fill: none; stroke: #000000; stroke-width: 2; stroke-linejoin: miter"/>
   </g>
   <g id="line2d_1">
    <path d="M 624.99 255.08 
L 888.93 255.08 
L 888.93 118.28 
L 624.99 118.28 
L 624.99 255.08 
" clip-path="url(#p16f58f17fd)" style="fill: none; stroke: #000000; stroke-width: 2; stroke-linecap: round"/>
   </g>
   <g id="line2d_2">
    <path d="M 624.99 154.28 
L 606.99 154.28 
" clip-path="url(#p16f58f17fd)" style="fill: none; stroke: #000000; stroke-width: 2; stroke-linecap: round"/>
   </g>
   <g id="line2d_3">
    <path d="M 624.99 175.88 
L 606.99 175.88 
" clip-path="url(#p16f58f17fd)" style="fill: none; stroke: #000000; stroke-width: 2; stroke-linecap: round"/>
   </g>
   <g id="line2d_4">
    <path d="M 624.99 197.48 
L 606.99 197.48 
" clip-path="url(#p16f58f17fd)" style="fill: none; stroke: #000000; stroke-width: 2; stroke-linecap: round"/>
   </g>
   <g id="line2d_5">
    <path d="M 624.99 219.08 
L 606.99 219.08 
" clip-path="url(#p16f58f17fd)" style="fill: none; stroke: #000000; stroke-width: 2; stroke-linecap: round"/>
   </g>
   <g id="line2d_6">
    <path d="M 888.93 186.68 
L 906.93 186.68 
" clip-path="url(#p16f58f17fd)" style="fill: none; stroke: #000000; stroke-width: 2; stroke-linecap: round"/>
   </g>
   <g id="line2d_7">
    <path d="M 888.93 208.28 
L 906.93 208.28 
" clip-path="url(#p16f58f17fd)" style="fill: none; stroke: #000000; stroke-width: 2; stroke-linecap: round"/>
   </g>
   <g id="line2d_8">
    <path d="M 606.99 197.48 
L 588.99 197.48 
L 570.99 197.48 
" clip-path="url(#p16f58f17fd)" style="fill: none; stroke: #000000; stroke-width: 2; stroke-linecap: round"/>
   </g>
   <g id="line2d_9">
    <path d="M 570.99 197.48 
L 570.99 183.08 
" clip-path="url(#p16f58f17fd)" style="fill: none; stroke: #000000; stroke-width: 2; stroke-linecap: round"/>
   </g>
   <g id="line2d_10">
    <path d="M 570.99 183.08 
L 564.24 183.08 
" clip-path="url(#p16f58f17fd)" style="fill: none; stroke: #000000; stroke-width: 2; stroke-linecap: round"/>
   </g>
   <g id="line2d_11">
    <path d="M 570.99 183.08 
L 577.74 183.08 
" clip-path="url(#p16f58f17fd)" style="fill: none; stroke: #000000; stroke-width: 2; stroke-linecap: round"/>
   </g>
   <g id="line2d_12">
    <path d="M 606.99 219.08 
L 574.59 219.08 
L 542.19 219.08 
" clip-path="url(#p16f58f17fd)" style="fill: none; stroke: #000000; stroke-width: 2; stroke-linecap: round"/>
   </g>
   <g id="line2d_13">
    <path d="M 542.19 219.08 
L 542.19 233.48 
L 542.19 247.88 
" clip-path="url(#p16f58f17fd)" style="fill: none; stroke: #000000; stroke-width: 2; stroke-linecap: round"/>
   </g>
   <g id="line2d_14">
    <path d="M 542.19 247.88 
L 542.19 262.28 
L 533.19 262.28 
L 551.19 262.28 
M 535.89 266.6 
L 548.49 266.6 
M 540.39 270.92 
L 543.99 270.92 
" clip-path="url(#p16f58f17fd)" style="fill: none; stroke: #000000; stroke-width: 2; stroke-linecap: round"/>
   </g>
   <g id="line2d_15">
    <path d="M 48.99 111.08 
L 48.99 93.08 
L 48.99 93.08 
M 48.99 57.08 
L 48.99 57.08 
L 48.99 39.08 
" clip-path="url(#p16f58f17fd)" style="fill: none; stroke: #000000; stroke-width: 2; stroke-linecap: round"/>
   </g>
   <g id="line2d_16">
    <path d="M 57.99 75.08 
L 57.24 73.216503 
L 56.49 71.48 
L 55.74 69.988831 
L 54.99 68.844617 
L 54.24 68.125334 
L 53.49 67.88 
L 52.74 68.125334 
L 51.99 68.844617 
L 51.24 69.988831 
L 50.49 71.48 
L 49.74 73.216503 
L 48.99 75.08 
L 48.24 76.943497 
L 47.49 78.68 
L 46.74 80.171169 
L 45.99 81.315383 
L 45.24 82.034666 
L 44.49 82.28 
L 43.74 82.034666 
L 42.99 81.315383 
L 42.24 80.171169 
L 41.49 78.68 
L 40.74 76.943497 
L 39.99 75.08 
" clip-path="url(#p16f58f17fd)" style="fill: none; stroke: #000000; stroke-width: 2; stroke-linecap: round"/>
   </g>
   <g id="line2d_17">
    <path d="M 48.99 39.08 
L 63.39 39.08 
L 77.79 39.08 
" clip-path="url(#p16f58f17fd)" style="fill: none; stroke: #000000; stroke-width: 2; stroke-linecap: round"/>
   </g>
   <g id="line2d_18">
    <path d="M 77.79 39.08 
L 95.79 39.08 
L 98.79 30.08 
L 104.79 48.08 
L 110.79 30.08 
L 116.79 48.08 
L 122.79 30.08 
L 128.79 48.08 
L 131.79 39.08 
L 149.79 39.08 
" clip-path="url(#p16f58f17fd)" style="fill: none; stroke: #000000; stroke-width: 2; stroke-linecap: round"/>
   </g>
   <g id="line2d_19">
    <path d="M 164.19 39.08 
L 164.19 111.08 
" clip-path="url(#p16f58f17fd)" style="fill: none; stroke: #000000; stroke-width: 2; stroke-linecap: round"/>
   </g>
   <g id="line2d_20">
    <path d="M 171.39 39.08 
L 171.39 111.08 
" clip-path="url(#p16f58f17fd)" style="fill: none; stroke: #000000; stroke-width: 2; stroke-linecap: round"/>
   </g>
   <g id="line2d_21">
    <path d="M 149.79 111.08 
L 99.39 111.08 
L 48.99 111.08 
" clip-path="url(#p16f58f17fd)" style="fill: none; stroke: #000000; stroke-width: 2; stroke-linecap: round"/>
   </g>
   <g id="line2d_22">
    <path d="M 48.99 111.08 
" clip-path="url(#p16f58f17fd)" style="fill: none; stroke: #000000; stroke-width: 2; stroke-linecap: round"/>
   </g>
   <g id="line2d_23">
    <path d="M 185.79 39.08 
L 196.59 39.08 
L 207.39 39.08 
" clip-path="url(#p16f58f17fd)" style="fill: none; stroke: #000000; stroke-width: 2; stroke-linecap: round"/>
   </g>
   <g id="line2d_24">
    <path d="M 207.39 39.08 
L 225.39 39.08 
L 228.39 30.08 
L 234.39 48.08 
L 240.39 30.08 
L 246.39 48.08 
L 252.39 30.08 
L 258.39 48.08 
L 261.39 39.08 
L 279.39 39.08 
" clip-path="url(#p16f58f17fd)" style="fill: none; stroke: #000000; stroke-width: 2; stroke-linecap: round"/>
   </g>
   <g id="line2d_25">
    <path d="M 279.39 39.08 
L 279.39 64.64 
M 288.39 64.64 
L 270.39 64.64 
M 288.39 71.12 
L 270.39 71.12 
M 279.39 71.12 
L 279.39 96.68 
" clip-path="url(#p16f58f17fd)" style="fill: none; stroke: #000000; stroke-width: 2; stroke-linecap: round"/>
   </g>
   <g id="line2d_26">
    <path d="M 279.39 96.68 
L 279.39 111.08 
L 270.39 111.08 
L 288.39 111.08 
M 273.09 115.4 
L 285.69 115.4 
M 277.59 119.72 
L 281.19 119.72 
" clip-path="url(#p16f58f17fd)" style="fill: none; stroke: #000000; stroke-width: 2; stroke-linecap: round"/>
   </g>
   <g id="line2d_27">
    <path d="M 279.39 39.08 
L 443.19 39.08 
L 606.99 39.08 
" clip-path="url(#p16f58f17fd)" style="fill: none; stroke: #000000; stroke-width: 2; stroke-linecap: round"/>
   </g>
   <g id="line2d_28">
    <path d="M 606.99 39.08 
L 606.99 96.68 
L 606.99 154.28 
" clip-path="url(#p16f58f17fd)" style="fill: none; stroke: #000000; stroke-width: 2; stroke-linecap: round"/>
   </g>
   <g id="line2d_29">
    <path d="M 207.39 39.08 
L 207.39 60.68 
L 216.39 63.68 
L 198.39 69.68 
L 216.39 75.68 
L 198.39 81.68 
L 216.39 87.68 
L 198.39 93.68 
L 207.39 96.68 
L 207.39 118.28 
" clip-path="url(#p16f58f17fd)" style="fill: none; stroke: #000000; stroke-width: 2; stroke-linecap: round"/>
   </g>
   <g id="line2d_30">
    <path d="M 185.79 111.08 
L 189.39 111.08 
L 192.99 111.08 
" clip-path="url(#p16f58f17fd)" style="fill: none; stroke: #000000; stroke-width: 2; stroke-linecap: round"/>
   </g>
   <g id="line2d_31">
    <path d="M 286.59 287.48 
L 286.59 373.88 
" clip-path="url(#p16f58f17fd)" style="fill: none; stroke: #000000; stroke-width: 2; stroke-linecap: round"/>
   </g>
   <g id="line2d_32">
    <path d="M 293.79 287.48 
L 293.79 373.88 
" clip-path="url(#p16f58f17fd)" style="fill: none; stroke: #000000; stroke-width: 2; stroke-linecap: round"/>
   </g>
   <g id="line2d_33">
    <path d="M 272.19 316.28 
L 257.79 316.28 
L 243.39 316.28 
" clip-path="url(#p16f58f17fd)" style="fill: none; stroke: #000000; stroke-width: 2; stroke-linecap: round"/>
   </g>
   <g id="line2d_34">
    <path d="M 272.19 345.08 
L 257.79 345.08 
L 243.39 345.08 
" clip-path="url(#p16f58f17fd)" style="fill: none; stroke: #000000; stroke-width: 2; stroke-linecap: round"/>
   </g>
   <g id="line2d_35">
    <path d="M 308.19 287.48 
L 318.99 287.48 
L 329.79 287.48 
" clip-path="url(#p16f58f17fd)" style="fill: none; stroke: #000000; stroke-width: 2; stroke-linecap: round"/>
   </g>
   <g id="line2d_36">
    <path d="M 329.79 287.48 
L 347.79 287.48 
L 350.79 278.48 
L 356.79 296.48 
L 362.79 278.48 
L 368.79 296.48 
L 374.79 278.48 
L 380.79 296.48 
L 383.79 287.48 
L 401.79 287.48 
" clip-path="url(#p16f58f17fd)" style="fill: none; stroke: #000000; stroke-width: 2; stroke-linecap: round"/>
   </g>
   <g id="line2d_37">
    <path d="M 401.79 287.48 
L 401.79 313.04 
M 410.79 313.04 
L 392.79 313.04 
M 410.79 319.52 
L 392.79 319.52 
M 401.79 319.52 
L 401.79 345.08 
" clip-path="url(#p16f58f17fd)" style="fill: none; stroke: #000000; stroke-width: 2; stroke-linecap: round"/>
   </g>
   <g id="line2d_38">
    <path d="M 401.79 345.08 
L 401.79 359.48 
L 392.79 359.48 
L 410.79 359.48 
M 395.49 363.8 
L 408.09 363.8 
M 399.99 368.12 
L 403.59 368.12 
" clip-path="url(#p16f58f17fd)" style="fill: none; stroke: #000000; stroke-width: 2; stroke-linecap: round"/>
   </g>
   <g id="line2d_39">
    <path d="M 401.79 287.48 
L 504.39 287.48 
L 606.99 287.48 
" clip-path="url(#p16f58f17fd)" style="fill: none; stroke: #000000; stroke-width: 2; stroke-linecap: round"/>
   </g>
   <g id="line2d_40">
    <path d="M 606.99 287.48 
L 606.99 231.68 
L 606.99 175.88 
" clip-path="url(#p16f58f17fd)" style="fill: none; stroke: #000000; stroke-width: 2; stroke-linecap: round"/>
   </g>
   <g id="line2d_41">
    <path d="M 329.79 287.48 
L 329.79 309.08 
L 338.79 312.08 
L 320.79 318.08 
L 338.79 324.08 
L 320.79 330.08 
L 338.79 336.08 
L 320.79 342.08 
L 329.79 345.08 
L 329.79 366.68 
" clip-path="url(#p16f58f17fd)" style="fill: none; stroke: #000000; stroke-width: 2; stroke-linecap: round"/>
   </g>
   <g id="line2d_42">
    <path d="M 308.19 373.88 
L 311.79 373.88 
L 315.39 373.88 
" clip-path="url(#p16f58f17fd)" style="fill: none; stroke: #000000; stroke-width: 2; stroke-linecap: round"/>
   </g>
   <g id="line2d_43">
    <path d="M 102.99 514.28 
L 102.99 499.88 
" clip-path="url(#p16f58f17fd)" style="fill: none; stroke: #000000; stroke-width: 2; stroke-linecap: round"/>
   </g>
   <g id="line2d_44">
    <path d="M 102.99 499.88 
L 96.24 499.88 
" clip-path="url(#p16f58f17fd)" style="fill: none; stroke: #000000; stroke-width: 2; stroke-linecap: round"/>
   </g>
   <g id="line2d_45">
    <path d="M 102.99 499.88 
L 109.74 499.88 
" clip-path="url(#p16f58f17fd)" style="fill: none; stroke: #000000; stroke-width: 2; stroke-linecap: round"/>
   </g>
   <g id="line2d_46">
    <path d="M 102.99 514.28 
L 102.99 532.28 
L 111.99 535.28 
L 93.99 541.28 
L 111.99 547.28 
L 93.99 553.28 
L 111.99 559.28 
L 93.99 565.28 
L 102.99 568.28 
L 102.99 586.28 
" clip-path="url(#p16f58f17fd)" style="fill: none; stroke: #000000; stroke-width: 2; stroke-linecap: round"/>
   </g>
   <g id="line2d_47">
    <path d="M 102.99 586.28 
L 102.99 604.28 
L 111.99 607.28 
L 93.99 613.28 
L 111.99 619.28 
L 93.99 625.28 
L 111.99 631.28 
L 93.99 637.28 
L 102.99 640.28 
L 102.99 658.28 
" clip-path="url(#p16f58f17fd)" style="fill: none; stroke: #000000; stroke-width: 2; stroke-linecap: round"/>
   </g>
   <g id="line2d_48">
    <path d="M 102.99 658.28 
L 102.99 672.68 
L 93.99 672.68 
L 111.99 672.68 
M 96.69 677 
L 109.29 677 
M 101.19 681.32 
L 104.79 681.32 
" clip-path="url(#p16f58f17fd)" style="fill: none; stroke: #000000; stroke-width: 2; stroke-linecap: round"/>
   </g>
   <g id="line2d_49">
    <path d="M 102.99 586.28 
L 70.59 586.28 
L 38.19 586.28 
" clip-path="url(#p16f58f17fd)" style="fill: none; stroke: #000000; stroke-width: 2; stroke-linecap: round"/>
   </g>
   <g id="line2d_50">
    <path d="M 38.19 586.28 
L 38.19 617.24 
M 47.19 617.24 
L 29.19 617.24 
M 47.19 623.72 
L 29.19 623.72 
M 38.19 623.72 
L 38.19 654.68 
" clip-path="url(#p16f58f17fd)" style="fill: none; stroke: #000000; stroke-width: 2; stroke-linecap: round"/>
   </g>
   <g id="line2d_51">
    <path d="M 38.19 654.68 
L 38.19 669.08 
L 29.19 669.08 
L 47.19 669.08 
M 31.89 673.4 
L 44.49 673.4 
M 36.39 677.72 
L 39.99 677.72 
" clip-path="url(#p16f58f17fd)" style="fill: none; stroke: #000000; stroke-width: 2; stroke-linecap: round"/>
   </g>
   <g id="line2d_52">
    <path d="M 102.99 586.28 
L 155.19 586.28 
L 207.39 586.28 
" clip-path="url(#p16f58f17fd)" style="fill: none; stroke: #000000; stroke-width: 2; stroke-linecap: round"/>
   </g>
   <g id="line2d_53">
    <path d="M 207.39 586.28 
L 207.39 352.28 
L 207.39 118.28 
" clip-path="url(#p16f58f17fd)" style="fill: none; stroke: #000000; stroke-width: 2; stroke-linecap: round"/>
   </g>
   <g id="line2d_54">
    <path d="M 207.39 586.28 
L 268.59 586.28 
L 329.79 586.28 
" clip-path="url(#p16f58f17fd)" style="fill: none; stroke: #000000; stroke-width: 2; stroke-linecap: round"/>
   </g>
   <g id="line2d_55">
    <path d="M 329.79 586.28 
L 329.79 476.48 
L 329.79 366.68 
" clip-path="url(#p16f58f17fd)" style="fill: none; stroke: #000000; stroke-width: 2; stroke-linecap: round"/>
   </g>
   <g id="text_1">
    <!-- PA0 (ADC1_IN0) -->
    <g transform="translate(630.39 157.940781) scale(0.14 -0.14)">
     <defs>
      <path id="DejaVuSans-33" d="M 1259 4147 
L 1259 2394 
L 2053 2394 
Q 2494 2394 2734 2622 
Q 2975 2850 2975 3272 
Q 2975 3691 2734 3919 
Q 2494 4147 2053 4147 
L 1259 4147 
z
M 628 4666 
L 2053 4666 
Q 2838 4666 3239 4311 
Q 3641 3956 3641 3272 
Q 3641 2581 3239 2228 
Q 2838 1875 2053 1875 
L 1259 1875 
L 1259 0 
L 628 0 
L 628 4666 
z
" transform="scale(0.015625)"/>
      <path id="DejaVuSans-24" d="M 2188 4044 
L 1331 1722 
L 3047 1722 
L 2188 4044 
z
M 1831 4666 
L 2547 4666 
L 4325 0 
L 3669 0 
L 3244 1197 
L 1141 1197 
L 716 0 
L 50 0 
L 1831 4666 
z
" transform="scale(0.015625)"/>
      <path id="DejaVuSans-13" d="M 2034 4250 
Q 1547 4250 1301 3770 
Q 1056 3291 1056 2328 
Q 1056 1369 1301 889 
Q 1547 409 2034 409 
Q 2525 409 2770 889 
Q 3016 1369 3016 2328 
Q 3016 3291 2770 3770 
Q 2525 4250 2034 4250 
z
M 2034 4750 
Q 2819 4750 3233 4129 
Q 3647 3509 3647 2328 
Q 3647 1150 3233 529 
Q 2819 -91 2034 -91 
Q 1250 -91 836 529 
Q 422 1150 422 2328 
Q 422 3509 836 4129 
Q 1250 4750 2034 4750 
z
" transform="scale(0.015625)"/>
      <path id="DejaVuSans-3" transform="scale(0.015625)"/>
      <path id="DejaVuSans-b" d="M 1984 4856 
Q 1566 4138 1362 3434 
Q 1159 2731 1159 2009 
Q 1159 1288 1364 580 
Q 1569 -128 1984 -844 
L 1484 -844 
Q 1016 -109 783 600 
Q 550 1309 550 2009 
Q 550 2706 781 3412 
Q 1013 4119 1484 4856 
L 1984 4856 
z
" transform="scale(0.015625)"/>
      <path id="DejaVuSans-27" d="M 1259 4147 
L 1259 519 
L 2022 519 
Q 2988 519 3436 956 
Q 3884 1394 3884 2338 
Q 3884 3275 3436 3711 
Q 2988 4147 2022 4147 
L 1259 4147 
z
M 628 4666 
L 1925 4666 
Q 3281 4666 3915 4102 
Q 4550 3538 4550 2338 
Q 4550 1131 3912 565 
Q 3275 0 1925 0 
L 628 0 
L 628 4666 
z
" transform="scale(0.015625)"/>
      <path id="DejaVuSans-26" d="M 4122 4306 
L 4122 3641 
Q 3803 3938 3442 4084 
Q 3081 4231 2675 4231 
Q 1875 4231 1450 3742 
Q 1025 3253 1025 2328 
Q 1025 1406 1450 917 
Q 1875 428 2675 428 
Q 3081 428 3442 575 
Q 3803 722 4122 1019 
L 4122 359 
Q 3791 134 3420 21 
Q 3050 -91 2638 -91 
Q 1578 -91 968 557 
Q 359 1206 359 2328 
Q 359 3453 968 4101 
Q 1578 4750 2638 4750 
Q 3056 4750 3426 4639 
Q 3797 4528 4122 4306 
z
" transform="scale(0.015625)"/>
      <path id="DejaVuSans-14" d="M 794 531 
L 1825 531 
L 1825 4091 
L 703 3866 
L 703 4441 
L 1819 4666 
L 2450 4666 
L 2450 531 
L 3481 531 
L 3481 0 
L 794 0 
L 794 531 
z
" transform="scale(0.015625)"/>
      <path id="DejaVuSans-42" d="M 3263 -1063 
L 3263 -1509 
L -63 -1509 
L -63 -1063 
L 3263 -1063 
z
" transform="scale(0.015625)"/>
      <path id="DejaVuSans-2c" d="M 628 4666 
L 1259 4666 
L 1259 0 
L 628 0 
L 628 4666 
z
" transform="scale(0.015625)"/>
      <path id="DejaVuSans-31" d="M 628 4666 
L 1478 4666 
L 3547 763 
L 3547 4666 
L 4159 4666 
L 4159 0 
L 3309 0 
L 1241 3903 
L 1241 0 
L 628 0 
L 628 4666 
z
" transform="scale(0.015625)"/>
      <path id="DejaVuSans-c" d="M 513 4856 
L 1013 4856 
Q 1481 4119 1714 3412 
Q 1947 2706 1947 2009 
Q 1947 1309 1714 600 
Q 1481 -109 1013 -844 
L 513 -844 
Q 928 -128 1133 580 
Q 1338 1288 1338 2009 
Q 1338 2731 1133 3434 
Q 928 4138 513 4856 
z
" transform="scale(0.015625)"/>
     </defs>
     <use xlink:href="#DejaVuSans-33"/>
     <use xlink:href="#DejaVuSans-24" transform="translate(53.90625 0)"/>
     <use xlink:href="#DejaVuSans-13" transform="translate(122.3125 0)"/>
     <use xlink:href="#DejaVuSans-3" transform="translate(185.9375 0)"/>
     <use xlink:href="#DejaVuSans-b" transform="translate(217.71875 0)"/>
     <use xlink:href="#DejaVuSans-24" transform="translate(256.734375 0)"/>
     <use xlink:href="#DejaVuSans-27" transform="translate(325.140625 0)"/>
     <use xlink:href="#DejaVuSans-26" transform="translate(402.140625 0)"/>
     <use xlink:href="#DejaVuSans-14" transform="translate(471.96875 0)"/>
     <use xlink:href="#DejaVuSans-42" transform="translate(535.59375 0)"/>
     <use xlink:href="#DejaVuSans-2c" transform="translate(585.59375 0)"/>
     <use xlink:href="#DejaVuSans-31" transform="translate(615.09375 0)"/>
     <use xlink:href="#DejaVuSans-13" transform="translate(689.90625 0)"/>
     <use xlink:href="#DejaVuSans-c" transform="translate(753.53125 0)"/>
    </g>
   </g>
   <g id="text_2">
    <!-- PA1 (ADC1_IN1) -->
    <g transform="translate(630.39 179.540781) scale(0.14 -0.14)">
     <use xlink:href="#DejaVuSans-33"/>
     <use xlink:href="#DejaVuSans-24" transform="translate(53.90625 0)"/>
     <use xlink:href="#DejaVuSans-14" transform="translate(122.3125 0)"/>
     <use xlink:href="#DejaVuSans-3" transform="translate(185.9375 0)"/>
     <use xlink:href="#DejaVuSans-b" transform="translate(217.71875 0)"/>
     <use xlink:href="#DejaVuSans-24" transform="translate(256.734375 0)"/>
     <use xlink:href="#DejaVuSans-27" transform="translate(325.140625 0)"/>
     <use xlink:href="#DejaVuSans-26" transform="translate(402.140625 0)"/>
     <use xlink:href="#DejaVuSans-14" transform="translate(471.96875 0)"/>
     <use xlink:href="#DejaVuSans-42" transform="translate(535.59375 0)"/>
     <use xlink:href="#DejaVuSans-2c" transform="translate(585.59375 0)"/>
     <use xlink:href="#DejaVuSans-31" transform="translate(615.09375 0)"/>
     <use xlink:href="#DejaVuSans-14" transform="translate(689.90625 0)"/>
     <use xlink:href="#DejaVuSans-c" transform="translate(753.53125 0)"/>
    </g>
   </g>
   <g id="text_3">
    <!-- 3V3 -->
    <g transform="translate(630.39 202.575781) scale(0.14 -0.14)">
     <defs>
      <path id="DejaVuSans-16" d="M 2597 2516 
Q 3050 2419 3304 2112 
Q 3559 1806 3559 1356 
Q 3559 666 3084 287 
Q 2609 -91 1734 -91 
Q 1441 -91 1130 -33 
Q 819 25 488 141 
L 488 750 
Q 750 597 1062 519 
Q 1375 441 1716 441 
Q 2309 441 2620 675 
Q 2931 909 2931 1356 
Q 2931 1769 2642 2001 
Q 2353 2234 1838 2234 
L 1294 2234 
L 1294 2753 
L 1863 2753 
Q 2328 2753 2575 2939 
Q 2822 3125 2822 3475 
Q 2822 3834 2567 4026 
Q 2313 4219 1838 4219 
Q 1578 4219 1281 4162 
Q 984 4106 628 3988 
L 628 4550 
Q 988 4650 1302 4700 
Q 1616 4750 1894 4750 
Q 2613 4750 3031 4423 
Q 3450 4097 3450 3541 
Q 3450 3153 3228 2886 
Q 3006 2619 2597 2516 
z
" transform="scale(0.015625)"/>
      <path id="DejaVuSans-39" d="M 1831 0 
L 50 4666 
L 709 4666 
L 2188 738 
L 3669 4666 
L 4325 4666 
L 2547 0 
L 1831 0 
z
" transform="scale(0.015625)"/>
     </defs>
     <use xlink:href="#DejaVuSans-16"/>
     <use xlink:href="#DejaVuSans-39" transform="translate(63.625 0)"/>
     <use xlink:href="#DejaVuSans-16" transform="translate(132.03125 0)"/>
    </g>
   </g>
   <g id="text_4">
    <!-- GND -->
    <g transform="translate(630.39 224.175781) scale(0.14 -0.14)">
     <defs>
      <path id="DejaVuSans-2a" d="M 3809 666 
L 3809 1919 
L 2778 1919 
L 2778 2438 
L 4434 2438 
L 4434 434 
Q 4069 175 3628 42 
Q 3188 -91 2688 -91 
Q 1594 -91 976 548 
Q 359 1188 359 2328 
Q 359 3472 976 4111 
Q 1594 4750 2688 4750 
Q 3144 4750 3555 4637 
Q 3966 4525 4313 4306 
L 4313 3634 
Q 3963 3931 3569 4081 
Q 3175 4231 2741 4231 
Q 1884 4231 1454 3753 
Q 1025 3275 1025 2328 
Q 1025 1384 1454 906 
Q 1884 428 2741 428 
Q 3075 428 3337 486 
Q 3600 544 3809 666 
z
" transform="scale(0.015625)"/>
     </defs>
     <use xlink:href="#DejaVuSans-2a"/>
     <use xlink:href="#DejaVuSans-31" transform="translate(77.484375 0)"/>
     <use xlink:href="#DejaVuSans-27" transform="translate(152.296875 0)"/>
    </g>
   </g>
   <g id="text_5">
    <!-- RJ45  (ETH) -->
    <g transform="translate(804.108437 190.590156) scale(0.14 -0.14)">
     <defs>
      <path id="DejaVuSans-35" d="M 2841 2188 
Q 3044 2119 3236 1894 
Q 3428 1669 3622 1275 
L 4263 0 
L 3584 0 
L 2988 1197 
Q 2756 1666 2539 1819 
Q 2322 1972 1947 1972 
L 1259 1972 
L 1259 0 
L 628 0 
L 628 4666 
L 2053 4666 
Q 2853 4666 3247 4331 
Q 3641 3997 3641 3322 
Q 3641 2881 3436 2590 
Q 3231 2300 2841 2188 
z
M 1259 4147 
L 1259 2491 
L 2053 2491 
Q 2509 2491 2742 2702 
Q 2975 2913 2975 3322 
Q 2975 3731 2742 3939 
Q 2509 4147 2053 4147 
L 1259 4147 
z
" transform="scale(0.015625)"/>
      <path id="DejaVuSans-2d" d="M 628 4666 
L 1259 4666 
L 1259 325 
Q 1259 -519 939 -900 
Q 619 -1281 -91 -1281 
L -331 -1281 
L -331 -750 
L -134 -750 
Q 284 -750 456 -515 
Q 628 -281 628 325 
L 628 4666 
z
" transform="scale(0.015625)"/>
      <path id="DejaVuSans-17" d="M 2419 4116 
L 825 1625 
L 2419 1625 
L 2419 4116 
z
M 2253 4666 
L 3047 4666 
L 3047 1625 
L 3713 1625 
L 3713 1100 
L 3047 1100 
L 3047 0 
L 2419 0 
L 2419 1100 
L 313 1100 
L 313 1709 
L 2253 4666 
z
" transform="scale(0.015625)"/>
      <path id="DejaVuSans-18" d="M 691 4666 
L 3169 4666 
L 3169 4134 
L 1269 4134 
L 1269 2991 
Q 1406 3038 1543 3061 
Q 1681 3084 1819 3084 
Q 2600 3084 3056 2656 
Q 3513 2228 3513 1497 
Q 3513 744 3044 326 
Q 2575 -91 1722 -91 
Q 1428 -91 1123 -41 
Q 819 9 494 109 
L 494 744 
Q 775 591 1075 516 
Q 1375 441 1709 441 
Q 2250 441 2565 725 
Q 2881 1009 2881 1497 
Q 2881 1984 2565 2268 
Q 2250 2553 1709 2553 
Q 1456 2553 1204 2497 
Q 953 2441 691 2322 
L 691 4666 
z
" transform="scale(0.015625)"/>
      <path id="DejaVuSans-28" d="M 628 4666 
L 3578 4666 
L 3578 4134 
L 1259 4134 
L 1259 2753 
L 3481 2753 
L 3481 2222 
L 1259 2222 
L 1259 531 
L 3634 531 
L 3634 0 
L 628 0 
L 628 4666 
z
" transform="scale(0.015625)"/>
      <path id="DejaVuSans-37" d="M -19 4666 
L 3928 4666 
L 3928 4134 
L 2272 4134 
L 2272 0 
L 1638 0 
L 1638 4134 
L -19 4134 
L -19 4666 
z
" transform="scale(0.015625)"/>
      <path id="DejaVuSans-2b" d="M 628 4666 
L 1259 4666 
L 1259 2753 
L 3553 2753 
L 3553 4666 
L 4184 4666 
L 4184 0 
L 3553 0 
L 3553 2222 
L 1259 2222 
L 1259 0 
L 628 0 
L 628 4666 
z
" transform="scale(0.015625)"/>
     </defs>
     <use xlink:href="#DejaVuSans-35"/>
     <use xlink:href="#DejaVuSans-2d" transform="translate(69.484375 0)"/>
     <use xlink:href="#DejaVuSans-17" transform="translate(98.984375 0)"/>
     <use xlink:href="#DejaVuSans-18" transform="translate(162.609375 0)"/>
     <use xlink:href="#DejaVuSans-3" transform="translate(226.234375 0)"/>
     <use xlink:href="#DejaVuSans-3" transform="translate(258.015625 0)"/>
     <use xlink:href="#DejaVuSans-b" transform="translate(289.796875 0)"/>
     <use xlink:href="#DejaVuSans-28" transform="translate(328.8125 0)"/>
     <use xlink:href="#DejaVuSans-37" transform="translate(392 0)"/>
     <use xlink:href="#DejaVuSans-2b" transform="translate(453.078125 0)"/>
     <use xlink:href="#DejaVuSans-c" transform="translate(528.28125 0)"/>
    </g>
   </g>
   <g id="text_6">
    <!-- USB  (ST-LINK / VCP) -->
    <g transform="translate(740.767187 212.668125) scale(0.14 -0.14)">
     <defs>
      <path id="DejaVuSans-38" d="M 556 4666 
L 1191 4666 
L 1191 1831 
Q 1191 1081 1462 751 
Q 1734 422 2344 422 
Q 2950 422 3222 751 
Q 3494 1081 3494 1831 
L 3494 4666 
L 4128 4666 
L 4128 1753 
Q 4128 841 3676 375 
Q 3225 -91 2344 -91 
Q 1459 -91 1007 375 
Q 556 841 556 1753 
L 556 4666 
z
" transform="scale(0.015625)"/>
      <path id="DejaVuSans-36" d="M 3425 4513 
L 3425 3897 
Q 3066 4069 2747 4153 
Q 2428 4238 2131 4238 
Q 1616 4238 1336 4038 
Q 1056 3838 1056 3469 
Q 1056 3159 1242 3001 
Q 1428 2844 1947 2747 
L 2328 2669 
Q 3034 2534 3370 2195 
Q 3706 1856 3706 1288 
Q 3706 609 3251 259 
Q 2797 -91 1919 -91 
Q 1588 -91 1214 -16 
Q 841 59 441 206 
L 441 856 
Q 825 641 1194 531 
Q 1563 422 1919 422 
Q 2459 422 2753 634 
Q 3047 847 3047 1241 
Q 3047 1584 2836 1778 
Q 2625 1972 2144 2069 
L 1759 2144 
Q 1053 2284 737 2584 
Q 422 2884 422 3419 
Q 422 4038 858 4394 
Q 1294 4750 2059 4750 
Q 2388 4750 2728 4690 
Q 3069 4631 3425 4513 
z
" transform="scale(0.015625)"/>
      <path id="DejaVuSans-25" d="M 1259 2228 
L 1259 519 
L 2272 519 
Q 2781 519 3026 730 
Q 3272 941 3272 1375 
Q 3272 1813 3026 2020 
Q 2781 2228 2272 2228 
L 1259 2228 
z
M 1259 4147 
L 1259 2741 
L 2194 2741 
Q 2656 2741 2882 2914 
Q 3109 3088 3109 3444 
Q 3109 3797 2882 3972 
Q 2656 4147 2194 4147 
L 1259 4147 
z
M 628 4666 
L 2241 4666 
Q 2963 4666 3353 4366 
Q 3744 4066 3744 3513 
Q 3744 3084 3544 2831 
Q 3344 2578 2956 2516 
Q 3422 2416 3680 2098 
Q 3938 1781 3938 1306 
Q 3938 681 3513 340 
Q 3088 0 2303 0 
L 628 0 
L 628 4666 
z
" transform="scale(0.015625)"/>
      <path id="DejaVuSans-10" d="M 313 2009 
L 1997 2009 
L 1997 1497 
L 313 1497 
L 313 2009 
z
" transform="scale(0.015625)"/>
      <path id="DejaVuSans-2f" d="M 628 4666 
L 1259 4666 
L 1259 531 
L 3531 531 
L 3531 0 
L 628 0 
L 628 4666 
z
" transform="scale(0.015625)"/>
      <path id="DejaVuSans-2e" d="M 628 4666 
L 1259 4666 
L 1259 2694 
L 3353 4666 
L 4166 4666 
L 1850 2491 
L 4331 0 
L 3500 0 
L 1259 2247 
L 1259 0 
L 628 0 
L 628 4666 
z
" transform="scale(0.015625)"/>
      <path id="DejaVuSans-12" d="M 1625 4666 
L 2156 4666 
L 531 -594 
L 0 -594 
L 1625 4666 
z
" transform="scale(0.015625)"/>
     </defs>
     <use xlink:href="#DejaVuSans-38"/>
     <use xlink:href="#DejaVuSans-36" transform="translate(73.1875 0)"/>
     <use xlink:href="#DejaVuSans-25" transform="translate(136.671875 0)"/>
     <use xlink:href="#DejaVuSans-3" transform="translate(205.28125 0)"/>
     <use xlink:href="#DejaVuSans-3" transform="translate(237.0625 0)"/>
     <use xlink:href="#DejaVuSans-b" transform="translate(268.84375 0)"/>
     <use xlink:href="#DejaVuSans-36" transform="translate(307.859375 0)"/>
     <use xlink:href="#DejaVuSans-37" transform="translate(371.34375 0)"/>
     <use xlink:href="#DejaVuSans-10" transform="translate(423.25 0)"/>
     <use xlink:href="#DejaVuSans-2f" transform="translate(459.328125 0)"/>
     <use xlink:href="#DejaVuSans-2c" transform="translate(515.046875 0)"/>
     <use xlink:href="#DejaVuSans-31" transform="translate(544.546875 0)"/>
     <use xlink:href="#DejaVuSans-2e" transform="translate(619.359375 0)"/>
     <use xlink:href="#DejaVuSans-3" transform="translate(684.9375 0)"/>
     <use xlink:href="#DejaVuSans-12" transform="translate(716.71875 0)"/>
     <use xlink:href="#DejaVuSans-3" transform="translate(750.40625 0)"/>
     <use xlink:href="#DejaVuSans-39" transform="translate(782.1875 0)"/>
     <use xlink:href="#DejaVuSans-26" transform="translate(850.59375 0)"/>
     <use xlink:href="#DejaVuSans-33" transform="translate(920.421875 0)"/>
     <use xlink:href="#DejaVuSans-c" transform="translate(980.71875 0)"/>
    </g>
   </g>
   <g id="text_7">
    <!-- Nucleo-F429ZI  (STM32F429ZIT6) -->
    <g transform="translate(664.627031 112.633828) scale(0.11 -0.11)">
     <defs>
      <path id="DejaVuSans-58" d="M 544 1381 
L 544 3500 
L 1119 3500 
L 1119 1403 
Q 1119 906 1312 657 
Q 1506 409 1894 409 
Q 2359 409 2629 706 
Q 2900 1003 2900 1516 
L 2900 3500 
L 3475 3500 
L 3475 0 
L 2900 0 
L 2900 538 
Q 2691 219 2414 64 
Q 2138 -91 1772 -91 
Q 1169 -91 856 284 
Q 544 659 544 1381 
z
M 1991 3584 
L 1991 3584 
z
" transform="scale(0.015625)"/>
      <path id="DejaVuSans-46" d="M 3122 3366 
L 3122 2828 
Q 2878 2963 2633 3030 
Q 2388 3097 2138 3097 
Q 1578 3097 1268 2742 
Q 959 2388 959 1747 
Q 959 1106 1268 751 
Q 1578 397 2138 397 
Q 2388 397 2633 464 
Q 2878 531 3122 666 
L 3122 134 
Q 2881 22 2623 -34 
Q 2366 -91 2075 -91 
Q 1284 -91 818 406 
Q 353 903 353 1747 
Q 353 2603 823 3093 
Q 1294 3584 2113 3584 
Q 2378 3584 2631 3529 
Q 2884 3475 3122 3366 
z
" transform="scale(0.015625)"/>
      <path id="DejaVuSans-4f" d="M 603 4863 
L 1178 4863 
L 1178 0 
L 603 0 
L 603 4863 
z
" transform="scale(0.015625)"/>
      <path id="DejaVuSans-48" d="M 3597 1894 
L 3597 1613 
L 953 1613 
Q 991 1019 1311 708 
Q 1631 397 2203 397 
Q 2534 397 2845 478 
Q 3156 559 3463 722 
L 3463 178 
Q 3153 47 2828 -22 
Q 2503 -91 2169 -91 
Q 1331 -91 842 396 
Q 353 884 353 1716 
Q 353 2575 817 3079 
Q 1281 3584 2069 3584 
Q 2775 3584 3186 3129 
Q 3597 2675 3597 1894 
z
M 3022 2063 
Q 3016 2534 2758 2815 
Q 2500 3097 2075 3097 
Q 1594 3097 1305 2825 
Q 1016 2553 972 2059 
L 3022 2063 
z
" transform="scale(0.015625)"/>
      <path id="DejaVuSans-52" d="M 1959 3097 
Q 1497 3097 1228 2736 
Q 959 2375 959 1747 
Q 959 1119 1226 758 
Q 1494 397 1959 397 
Q 2419 397 2687 759 
Q 2956 1122 2956 1747 
Q 2956 2369 2687 2733 
Q 2419 3097 1959 3097 
z
M 1959 3584 
Q 2709 3584 3137 3096 
Q 3566 2609 3566 1747 
Q 3566 888 3137 398 
Q 2709 -91 1959 -91 
Q 1206 -91 779 398 
Q 353 888 353 1747 
Q 353 2609 779 3096 
Q 1206 3584 1959 3584 
z
" transform="scale(0.015625)"/>
      <path id="DejaVuSans-29" d="M 628 4666 
L 3309 4666 
L 3309 4134 
L 1259 4134 
L 1259 2759 
L 3109 2759 
L 3109 2228 
L 1259 2228 
L 1259 0 
L 628 0 
L 628 4666 
z
" transform="scale(0.015625)"/>
      <path id="DejaVuSans-15" d="M 1228 531 
L 3431 531 
L 3431 0 
L 469 0 
L 469 531 
Q 828 903 1448 1529 
Q 2069 2156 2228 2338 
Q 2531 2678 2651 2914 
Q 2772 3150 2772 3378 
Q 2772 3750 2511 3984 
Q 2250 4219 1831 4219 
Q 1534 4219 1204 4116 
Q 875 4013 500 3803 
L 500 4441 
Q 881 4594 1212 4672 
Q 1544 4750 1819 4750 
Q 2544 4750 2975 4387 
Q 3406 4025 3406 3419 
Q 3406 3131 3298 2873 
Q 3191 2616 2906 2266 
Q 2828 2175 2409 1742 
Q 1991 1309 1228 531 
z
" transform="scale(0.015625)"/>
      <path id="DejaVuSans-1c" d="M 703 97 
L 703 672 
Q 941 559 1184 500 
Q 1428 441 1663 441 
Q 2288 441 2617 861 
Q 2947 1281 2994 2138 
Q 2813 1869 2534 1725 
Q 2256 1581 1919 1581 
Q 1219 1581 811 2004 
Q 403 2428 403 3163 
Q 403 3881 828 4315 
Q 1253 4750 1959 4750 
Q 2769 4750 3195 4129 
Q 3622 3509 3622 2328 
Q 3622 1225 3098 567 
Q 2575 -91 1691 -91 
Q 1453 -91 1209 -44 
Q 966 3 703 97 
z
M 1959 2075 
Q 2384 2075 2632 2365 
Q 2881 2656 2881 3163 
Q 2881 3666 2632 3958 
Q 2384 4250 1959 4250 
Q 1534 4250 1286 3958 
Q 1038 3666 1038 3163 
Q 1038 2656 1286 2365 
Q 1534 2075 1959 2075 
z
" transform="scale(0.015625)"/>
      <path id="DejaVuSans-3d" d="M 359 4666 
L 4025 4666 
L 4025 4184 
L 1075 531 
L 4097 531 
L 4097 0 
L 288 0 
L 288 481 
L 3238 4134 
L 359 4134 
L 359 4666 
z
" transform="scale(0.015625)"/>
      <path id="DejaVuSans-30" d="M 628 4666 
L 1569 4666 
L 2759 1491 
L 3956 4666 
L 4897 4666 
L 4897 0 
L 4281 0 
L 4281 4097 
L 3078 897 
L 2444 897 
L 1241 4097 
L 1241 0 
L 628 0 
L 628 4666 
z
" transform="scale(0.015625)"/>
      <path id="DejaVuSans-19" d="M 2113 2584 
Q 1688 2584 1439 2293 
Q 1191 2003 1191 1497 
Q 1191 994 1439 701 
Q 1688 409 2113 409 
Q 2538 409 2786 701 
Q 3034 994 3034 1497 
Q 3034 2003 2786 2293 
Q 2538 2584 2113 2584 
z
M 3366 4563 
L 3366 3988 
Q 3128 4100 2886 4159 
Q 2644 4219 2406 4219 
Q 1781 4219 1451 3797 
Q 1122 3375 1075 2522 
Q 1259 2794 1537 2939 
Q 1816 3084 2150 3084 
Q 2853 3084 3261 2657 
Q 3669 2231 3669 1497 
Q 3669 778 3244 343 
Q 2819 -91 2113 -91 
Q 1303 -91 875 529 
Q 447 1150 447 2328 
Q 447 3434 972 4092 
Q 1497 4750 2381 4750 
Q 2619 4750 2861 4703 
Q 3103 4656 3366 4563 
z
" transform="scale(0.015625)"/>
     </defs>
     <use xlink:href="#DejaVuSans-31"/>
     <use xlink:href="#DejaVuSans-58" transform="translate(74.8125 0)"/>
     <use xlink:href="#DejaVuSans-46" transform="translate(138.1875 0)"/>
     <use xlink:href="#DejaVuSans-4f" transform="translate(193.171875 0)"/>
     <use xlink:href="#DejaVuSans-48" transform="translate(220.953125 0)"/>
     <use xlink:href="#DejaVuSans-52" transform="translate(282.484375 0)"/>
     <use xlink:href="#DejaVuSans-10" transform="translate(345.53125 0)"/>
     <use xlink:href="#DejaVuSans-29" transform="translate(381.609375 0)"/>
     <use xlink:href="#DejaVuSans-17" transform="translate(439.125 0)"/>
     <use xlink:href="#DejaVuSans-15" transform="translate(502.75 0)"/>
     <use xlink:href="#DejaVuSans-1c" transform="translate(566.375 0)"/>
     <use xlink:href="#DejaVuSans-3d" transform="translate(630 0)"/>
     <use xlink:href="#DejaVuSans-2c" transform="translate(698.5 0)"/>
     <use xlink:href="#DejaVuSans-3" transform="translate(728 0)"/>
     <use xlink:href="#DejaVuSans-3" transform="translate(759.78125 0)"/>
     <use xlink:href="#DejaVuSans-b" transform="translate(791.5625 0)"/>
     <use xlink:href="#DejaVuSans-36" transform="translate(830.578125 0)"/>
     <use xlink:href="#DejaVuSans-37" transform="translate(894.0625 0)"/>
     <use xlink:href="#DejaVuSans-30" transform="translate(955.140625 0)"/>
     <use xlink:href="#DejaVuSans-16" transform="translate(1041.421875 0)"/>
     <use xlink:href="#DejaVuSans-15" transform="translate(1105.046875 0)"/>
     <use xlink:href="#DejaVuSans-29" transform="translate(1168.671875 0)"/>
     <use xlink:href="#DejaVuSans-17" transform="translate(1226.1875 0)"/>
     <use xlink:href="#DejaVuSans-15" transform="translate(1289.8125 0)"/>
     <use xlink:href="#DejaVuSans-1c" transform="translate(1353.4375 0)"/>
     <use xlink:href="#DejaVuSans-3d" transform="translate(1417.0625 0)"/>
     <use xlink:href="#DejaVuSans-2c" transform="translate(1485.5625 0)"/>
     <use xlink:href="#DejaVuSans-37" transform="translate(1515.0625 0)"/>
     <use xlink:href="#DejaVuSans-19" transform="translate(1576.140625 0)"/>
     <use xlink:href="#DejaVuSans-c" transform="translate(1639.765625 0)"/>
    </g>
   </g>
   <g id="text_8">
    <!-- 3V3 -->
    <g transform="translate(561.207188 178.119844) scale(0.1 -0.1)">
     <use xlink:href="#DejaVuSans-16"/>
     <use xlink:href="#DejaVuSans-39" transform="translate(63.625 0)"/>
     <use xlink:href="#DejaVuSans-16" transform="translate(132.03125 0)"/>
    </g>
   </g>
   <g id="text_9">
    <!-- mains -->
    <g transform="translate(33.893125 123.408125) scale(0.1 -0.1)">
     <defs>
      <path id="DejaVuSans-50" d="M 3328 2828 
Q 3544 3216 3844 3400 
Q 4144 3584 4550 3584 
Q 5097 3584 5394 3201 
Q 5691 2819 5691 2113 
L 5691 0 
L 5113 0 
L 5113 2094 
Q 5113 2597 4934 2840 
Q 4756 3084 4391 3084 
Q 3944 3084 3684 2787 
Q 3425 2491 3425 1978 
L 3425 0 
L 2847 0 
L 2847 2094 
Q 2847 2600 2669 2842 
Q 2491 3084 2119 3084 
Q 1678 3084 1418 2786 
Q 1159 2488 1159 1978 
L 1159 0 
L 581 0 
L 581 3500 
L 1159 3500 
L 1159 2956 
Q 1356 3278 1631 3431 
Q 1906 3584 2284 3584 
Q 2666 3584 2933 3390 
Q 3200 3197 3328 2828 
z
" transform="scale(0.015625)"/>
      <path id="DejaVuSans-44" d="M 2194 1759 
Q 1497 1759 1228 1600 
Q 959 1441 959 1056 
Q 959 750 1161 570 
Q 1363 391 1709 391 
Q 2188 391 2477 730 
Q 2766 1069 2766 1631 
L 2766 1759 
L 2194 1759 
z
M 3341 1997 
L 3341 0 
L 2766 0 
L 2766 531 
Q 2569 213 2275 61 
Q 1981 -91 1556 -91 
Q 1019 -91 701 211 
Q 384 513 384 1019 
Q 384 1609 779 1909 
Q 1175 2209 1959 2209 
L 2766 2209 
L 2766 2266 
Q 2766 2663 2505 2880 
Q 2244 3097 1772 3097 
Q 1472 3097 1187 3025 
Q 903 2953 641 2809 
L 641 3341 
Q 956 3463 1253 3523 
Q 1550 3584 1831 3584 
Q 2591 3584 2966 3190 
Q 3341 2797 3341 1997 
z
" transform="scale(0.015625)"/>
      <path id="DejaVuSans-4c" d="M 603 3500 
L 1178 3500 
L 1178 0 
L 603 0 
L 603 3500 
z
M 603 4863 
L 1178 4863 
L 1178 4134 
L 603 4134 
L 603 4863 
z
" transform="scale(0.015625)"/>
      <path id="DejaVuSans-51" d="M 3513 2113 
L 3513 0 
L 2938 0 
L 2938 2094 
Q 2938 2591 2744 2837 
Q 2550 3084 2163 3084 
Q 1697 3084 1428 2787 
Q 1159 2491 1159 1978 
L 1159 0 
L 581 0 
L 581 3500 
L 1159 3500 
L 1159 2956 
Q 1366 3272 1645 3428 
Q 1925 3584 2291 3584 
Q 2894 3584 3203 3211 
Q 3513 2838 3513 2113 
z
" transform="scale(0.015625)"/>
      <path id="DejaVuSans-56" d="M 2834 3397 
L 2834 2853 
Q 2591 2978 2328 3040 
Q 2066 3103 1784 3103 
Q 1356 3103 1142 2972 
Q 928 2841 928 2578 
Q 928 2378 1081 2264 
Q 1234 2150 1697 2047 
L 1894 2003 
Q 2506 1872 2764 1633 
Q 3022 1394 3022 966 
Q 3022 478 2636 193 
Q 2250 -91 1575 -91 
Q 1294 -91 989 -36 
Q 684 19 347 128 
L 347 722 
Q 666 556 975 473 
Q 1284 391 1588 391 
Q 1994 391 2212 530 
Q 2431 669 2431 922 
Q 2431 1156 2273 1281 
Q 2116 1406 1581 1522 
L 1381 1569 
Q 847 1681 609 1914 
Q 372 2147 372 2553 
Q 372 3047 722 3315 
Q 1072 3584 1716 3584 
Q 2034 3584 2315 3537 
Q 2597 3491 2834 3397 
z
" transform="scale(0.015625)"/>
     </defs>
     <use xlink:href="#DejaVuSans-50"/>
     <use xlink:href="#DejaVuSans-44" transform="translate(97.40625 0)"/>
     <use xlink:href="#DejaVuSans-4c" transform="translate(158.6875 0)"/>
     <use xlink:href="#DejaVuSans-51" transform="translate(186.46875 0)"/>
     <use xlink:href="#DejaVuSans-56" transform="translate(249.84375 0)"/>
    </g>
    <!-- 230 V -->
    <g transform="translate(34.436875 133.319844) scale(0.1 -0.1)">
     <use xlink:href="#DejaVuSans-15"/>
     <use xlink:href="#DejaVuSans-16" transform="translate(63.625 0)"/>
     <use xlink:href="#DejaVuSans-13" transform="translate(127.25 0)"/>
     <use xlink:href="#DejaVuSans-3" transform="translate(190.875 0)"/>
     <use xlink:href="#DejaVuSans-39" transform="translate(222.65625 0)"/>
    </g>
    <!-- 50 Hz -->
    <g transform="translate(34.654063 143.319844) scale(0.1 -0.1)">
     <defs>
      <path id="DejaVuSans-5d" d="M 353 3500 
L 3084 3500 
L 3084 2975 
L 922 459 
L 3084 459 
L 3084 0 
L 275 0 
L 275 525 
L 2438 3041 
L 353 3041 
L 353 3500 
z
" transform="scale(0.015625)"/>
     </defs>
     <use xlink:href="#DejaVuSans-18"/>
     <use xlink:href="#DejaVuSans-13" transform="translate(63.625 0)"/>
     <use xlink:href="#DejaVuSans-3" transform="translate(127.25 0)"/>
     <use xlink:href="#DejaVuSans-2b" transform="translate(159.03125 0)"/>
     <use xlink:href="#DejaVuSans-5d" transform="translate(234.234375 0)"/>
    </g>
   </g>
   <g id="text_10">
    <!-- R1 -->
    <g transform="translate(107.134531 60.325312) scale(0.1 -0.1)">
     <use xlink:href="#DejaVuSans-35"/>
     <use xlink:href="#DejaVuSans-14" transform="translate(69.484375 0)"/>
    </g>
    <!-- 100 kΩ 1 W -->
    <g transform="translate(84.637656 70.408125) scale(0.1 -0.1)">
     <defs>
      <path id="DejaVuSans-4e" d="M 581 4863 
L 1159 4863 
L 1159 1991 
L 2875 3500 
L 3609 3500 
L 1753 1863 
L 3688 0 
L 2938 0 
L 1159 1709 
L 1159 0 
L 581 0 
L 581 4863 
z
" transform="scale(0.015625)"/>
      <path id="DejaVuSans-33d" d="M 4647 556 
L 4647 0 
L 2772 0 
L 2772 556 
Q 3325 859 3634 1378 
Q 3944 1897 3944 2528 
Q 3944 3278 3531 3731 
Q 3119 4184 2444 4184 
Q 1769 4184 1355 3729 
Q 941 3275 941 2528 
Q 941 1897 1250 1378 
Q 1563 859 2119 556 
L 2119 0 
L 244 0 
L 244 556 
L 1241 556 
Q 747 991 519 1456 
Q 294 1922 294 2497 
Q 294 3491 894 4106 
Q 1491 4722 2444 4722 
Q 3391 4722 3994 4106 
Q 4594 3494 4594 2528 
Q 4594 1922 4372 1459 
Q 4150 997 3647 556 
L 4647 556 
z
" transform="scale(0.015625)"/>
      <path id="DejaVuSans-3a" d="M 213 4666 
L 850 4666 
L 1831 722 
L 2809 4666 
L 3519 4666 
L 4500 722 
L 5478 4666 
L 6119 4666 
L 4947 0 
L 4153 0 
L 3169 4050 
L 2175 0 
L 1381 0 
L 213 4666 
z
" transform="scale(0.015625)"/>
     </defs>
     <use xlink:href="#DejaVuSans-14"/>
     <use xlink:href="#DejaVuSans-13" transform="translate(63.625 0)"/>
     <use xlink:href="#DejaVuSans-13" transform="translate(127.25 0)"/>
     <use xlink:href="#DejaVuSans-3" transform="translate(190.875 0)"/>
     <use xlink:href="#DejaVuSans-4e" transform="translate(222.65625 0)"/>
     <use xlink:href="#DejaVuSans-33d" transform="translate(280.5625 0)"/>
     <use xlink:href="#DejaVuSans-3" transform="translate(356.984375 0)"/>
     <use xlink:href="#DejaVuSans-14" transform="translate(388.765625 0)"/>
     <use xlink:href="#DejaVuSans-3" transform="translate(452.390625 0)"/>
     <use xlink:href="#DejaVuSans-3a" transform="translate(484.171875 0)"/>
    </g>
   </g>
   <g id="text_11">
    <!-- T1  ZMPT101B -->
    <g transform="translate(131.594688 13.319844) scale(0.1 -0.1)">
     <use xlink:href="#DejaVuSans-37"/>
     <use xlink:href="#DejaVuSans-14" transform="translate(61.078125 0)"/>
     <use xlink:href="#DejaVuSans-3" transform="translate(124.703125 0)"/>
     <use xlink:href="#DejaVuSans-3" transform="translate(156.484375 0)"/>
     <use xlink:href="#DejaVuSans-3d" transform="translate(188.265625 0)"/>
     <use xlink:href="#DejaVuSans-30" transform="translate(256.765625 0)"/>
     <use xlink:href="#DejaVuSans-33" transform="translate(343.046875 0)"/>
     <use xlink:href="#DejaVuSans-37" transform="translate(403.34375 0)"/>
     <use xlink:href="#DejaVuSans-14" transform="translate(464.421875 0)"/>
     <use xlink:href="#DejaVuSans-13" transform="translate(528.046875 0)"/>
     <use xlink:href="#DejaVuSans-14" transform="translate(591.671875 0)"/>
     <use xlink:href="#DejaVuSans-25" transform="translate(655.296875 0)"/>
    </g>
    <!-- 2 mA : 2 mA -->
    <g transform="translate(136.805625 23.390937) scale(0.1 -0.1)">
     <defs>
      <path id="DejaVuSans-1d" d="M 750 794 
L 1409 794 
L 1409 0 
L 750 0 
L 750 794 
z
M 750 3309 
L 1409 3309 
L 1409 2516 
L 750 2516 
L 750 3309 
z
" transform="scale(0.015625)"/>
     </defs>
     <use xlink:href="#DejaVuSans-15"/>
     <use xlink:href="#DejaVuSans-3" transform="translate(63.625 0)"/>
     <use xlink:href="#DejaVuSans-50" transform="translate(95.40625 0)"/>
     <use xlink:href="#DejaVuSans-24" transform="translate(192.8125 0)"/>
     <use xlink:href="#DejaVuSans-3" transform="translate(261.21875 0)"/>
     <use xlink:href="#DejaVuSans-1d" transform="translate(293 0)"/>
     <use xlink:href="#DejaVuSans-3" transform="translate(326.6875 0)"/>
     <use xlink:href="#DejaVuSans-15" transform="translate(358.46875 0)"/>
     <use xlink:href="#DejaVuSans-3" transform="translate(422.09375 0)"/>
     <use xlink:href="#DejaVuSans-50" transform="translate(453.875 0)"/>
     <use xlink:href="#DejaVuSans-24" transform="translate(551.28125 0)"/>
    </g>
   </g>
   <g id="text_12">
    <!-- R5 -->
    <g transform="translate(236.734531 15.054219) scale(0.1 -0.1)">
     <use xlink:href="#DejaVuSans-35"/>
     <use xlink:href="#DejaVuSans-18" transform="translate(69.484375 0)"/>
    </g>
    <!-- 1 kΩ -->
    <g transform="translate(231.903281 25.279219) scale(0.1 -0.1)">
     <use xlink:href="#DejaVuSans-14"/>
     <use xlink:href="#DejaVuSans-3" transform="translate(63.625 0)"/>
     <use xlink:href="#DejaVuSans-4e" transform="translate(95.40625 0)"/>
     <use xlink:href="#DejaVuSans-33d" transform="translate(153.3125 0)"/>
    </g>
   </g>
   <g id="text_13">
    <!-- C2 -->
    <g transform="translate(291.99 66.519844) scale(0.1 -0.1)">
     <use xlink:href="#DejaVuSans-26"/>
     <use xlink:href="#DejaVuSans-15" transform="translate(69.828125 0)"/>
    </g>
    <!-- 100 nF -->
    <g transform="translate(291.99 76.519844) scale(0.1 -0.1)">
     <use xlink:href="#DejaVuSans-14"/>
     <use xlink:href="#DejaVuSans-13" transform="translate(63.625 0)"/>
     <use xlink:href="#DejaVuSans-13" transform="translate(127.25 0)"/>
     <use xlink:href="#DejaVuSans-3" transform="translate(190.875 0)"/>
     <use xlink:href="#DejaVuSans-51" transform="translate(222.65625 0)"/>
     <use xlink:href="#DejaVuSans-29" transform="translate(286.03125 0)"/>
    </g>
   </g>
   <g id="text_14">
    <!-- R2 (burden) -->
    <g transform="translate(219.99 76.819844) scale(0.1 -0.1)">
     <defs>
      <path id="DejaVuSans-45" d="M 3116 1747 
Q 3116 2381 2855 2742 
Q 2594 3103 2138 3103 
Q 1681 3103 1420 2742 
Q 1159 2381 1159 1747 
Q 1159 1113 1420 752 
Q 1681 391 2138 391 
Q 2594 391 2855 752 
Q 3116 1113 3116 1747 
z
M 1159 2969 
Q 1341 3281 1617 3432 
Q 1894 3584 2278 3584 
Q 2916 3584 3314 3078 
Q 3713 2572 3713 1747 
Q 3713 922 3314 415 
Q 2916 -91 2278 -91 
Q 1894 -91 1617 61 
Q 1341 213 1159 525 
L 1159 0 
L 581 0 
L 581 4863 
L 1159 4863 
L 1159 2969 
z
" transform="scale(0.015625)"/>
      <path id="DejaVuSans-55" d="M 2631 2963 
Q 2534 3019 2420 3045 
Q 2306 3072 2169 3072 
Q 1681 3072 1420 2755 
Q 1159 2438 1159 1844 
L 1159 0 
L 581 0 
L 581 3500 
L 1159 3500 
L 1159 2956 
Q 1341 3275 1631 3429 
Q 1922 3584 2338 3584 
Q 2397 3584 2469 3576 
Q 2541 3569 2628 3553 
L 2631 2963 
z
" transform="scale(0.015625)"/>
      <path id="DejaVuSans-47" d="M 2906 2969 
L 2906 4863 
L 3481 4863 
L 3481 0 
L 2906 0 
L 2906 525 
Q 2725 213 2448 61 
Q 2172 -91 1784 -91 
Q 1150 -91 751 415 
Q 353 922 353 1747 
Q 353 2572 751 3078 
Q 1150 3584 1784 3584 
Q 2172 3584 2448 3432 
Q 2725 3281 2906 2969 
z
M 947 1747 
Q 947 1113 1208 752 
Q 1469 391 1925 391 
Q 2381 391 2643 752 
Q 2906 1113 2906 1747 
Q 2906 2381 2643 2742 
Q 2381 3103 1925 3103 
Q 1469 3103 1208 2742 
Q 947 2381 947 1747 
z
" transform="scale(0.015625)"/>
     </defs>
     <use xlink:href="#DejaVuSans-35"/>
     <use xlink:href="#DejaVuSans-15" transform="translate(69.484375 0)"/>
     <use xlink:href="#DejaVuSans-3" transform="translate(133.109375 0)"/>
     <use xlink:href="#DejaVuSans-b" transform="translate(164.890625 0)"/>
     <use xlink:href="#DejaVuSans-45" transform="translate(203.90625 0)"/>
     <use xlink:href="#DejaVuSans-58" transform="translate(267.390625 0)"/>
     <use xlink:href="#DejaVuSans-55" transform="translate(330.765625 0)"/>
     <use xlink:href="#DejaVuSans-47" transform="translate(370.125 0)"/>
     <use xlink:href="#DejaVuSans-48" transform="translate(433.609375 0)"/>
     <use xlink:href="#DejaVuSans-51" transform="translate(495.140625 0)"/>
     <use xlink:href="#DejaVuSans-c" transform="translate(558.515625 0)"/>
    </g>
    <!-- 330 Ω  0.1 % -->
    <g transform="translate(219.99 87.319844) scale(0.1 -0.1)">
     <defs>
      <path id="DejaVuSans-11" d="M 684 794 
L 1344 794 
L 1344 0 
L 684 0 
L 684 794 
z
" transform="scale(0.015625)"/>
      <path id="DejaVuSans-8" d="M 4653 2053 
Q 4381 2053 4226 1822 
Q 4072 1591 4072 1178 
Q 4072 772 4226 539 
Q 4381 306 4653 306 
Q 4919 306 5073 539 
Q 5228 772 5228 1178 
Q 5228 1588 5073 1820 
Q 4919 2053 4653 2053 
z
M 4653 2450 
Q 5147 2450 5437 2106 
Q 5728 1763 5728 1178 
Q 5728 594 5436 251 
Q 5144 -91 4653 -91 
Q 4153 -91 3862 251 
Q 3572 594 3572 1178 
Q 3572 1766 3864 2108 
Q 4156 2450 4653 2450 
z
M 1428 4353 
Q 1159 4353 1004 4120 
Q 850 3888 850 3481 
Q 850 3069 1003 2837 
Q 1156 2606 1428 2606 
Q 1700 2606 1854 2837 
Q 2009 3069 2009 3481 
Q 2009 3884 1853 4118 
Q 1697 4353 1428 4353 
z
M 4250 4750 
L 4750 4750 
L 1831 -91 
L 1331 -91 
L 4250 4750 
z
M 1428 4750 
Q 1922 4750 2215 4408 
Q 2509 4066 2509 3481 
Q 2509 2891 2217 2550 
Q 1925 2209 1428 2209 
Q 931 2209 642 2551 
Q 353 2894 353 3481 
Q 353 4063 643 4406 
Q 934 4750 1428 4750 
z
" transform="scale(0.015625)"/>
     </defs>
     <use xlink:href="#DejaVuSans-16"/>
     <use xlink:href="#DejaVuSans-16" transform="translate(63.625 0)"/>
     <use xlink:href="#DejaVuSans-13" transform="translate(127.25 0)"/>
     <use xlink:href="#DejaVuSans-3" transform="translate(190.875 0)"/>
     <use xlink:href="#DejaVuSans-33d" transform="translate(222.65625 0)"/>
     <use xlink:href="#DejaVuSans-3" transform="translate(299.078125 0)"/>
     <use xlink:href="#DejaVuSans-3" transform="translate(330.859375 0)"/>
     <use xlink:href="#DejaVuSans-13" transform="translate(362.640625 0)"/>
     <use xlink:href="#DejaVuSans-11" transform="translate(426.265625 0)"/>
     <use xlink:href="#DejaVuSans-14" transform="translate(458.046875 0)"/>
     <use xlink:href="#DejaVuSans-3" transform="translate(521.671875 0)"/>
     <use xlink:href="#DejaVuSans-8" transform="translate(553.453125 0)"/>
    </g>
   </g>
   <g id="text_15">
    <!-- T2  SCT-013-030 -->
    <g transform="translate(248.820469 272.519844) scale(0.1 -0.1)">
     <use xlink:href="#DejaVuSans-37"/>
     <use xlink:href="#DejaVuSans-15" transform="translate(61.078125 0)"/>
     <use xlink:href="#DejaVuSans-3" transform="translate(124.703125 0)"/>
     <use xlink:href="#DejaVuSans-3" transform="translate(156.484375 0)"/>
     <use xlink:href="#DejaVuSans-36" transform="translate(188.265625 0)"/>
     <use xlink:href="#DejaVuSans-26" transform="translate(251.75 0)"/>
     <use xlink:href="#DejaVuSans-37" transform="translate(321.578125 0)"/>
     <use xlink:href="#DejaVuSans-10" transform="translate(373.484375 0)"/>
     <use xlink:href="#DejaVuSans-13" transform="translate(409.5625 0)"/>
     <use xlink:href="#DejaVuSans-14" transform="translate(473.1875 0)"/>
     <use xlink:href="#DejaVuSans-16" transform="translate(536.8125 0)"/>
     <use xlink:href="#DejaVuSans-10" transform="translate(600.4375 0)"/>
     <use xlink:href="#DejaVuSans-13" transform="translate(636.515625 0)"/>
     <use xlink:href="#DejaVuSans-16" transform="translate(700.140625 0)"/>
     <use xlink:href="#DejaVuSans-13" transform="translate(763.765625 0)"/>
    </g>
    <!-- 2000 : 1, split core -->
    <g transform="translate(243.306406 281.639375) scale(0.1 -0.1)">
     <defs>
      <path id="DejaVuSans-f" d="M 750 794 
L 1409 794 
L 1409 256 
L 897 -744 
L 494 -744 
L 750 256 
L 750 794 
z
" transform="scale(0.015625)"/>
      <path id="DejaVuSans-53" d="M 1159 525 
L 1159 -1331 
L 581 -1331 
L 581 3500 
L 1159 3500 
L 1159 2969 
Q 1341 3281 1617 3432 
Q 1894 3584 2278 3584 
Q 2916 3584 3314 3078 
Q 3713 2572 3713 1747 
Q 3713 922 3314 415 
Q 2916 -91 2278 -91 
Q 1894 -91 1617 61 
Q 1341 213 1159 525 
z
M 3116 1747 
Q 3116 2381 2855 2742 
Q 2594 3103 2138 3103 
Q 1681 3103 1420 2742 
Q 1159 2381 1159 1747 
Q 1159 1113 1420 752 
Q 1681 391 2138 391 
Q 2594 391 2855 752 
Q 3116 1113 3116 1747 
z
" transform="scale(0.015625)"/>
      <path id="DejaVuSans-57" d="M 1172 4494 
L 1172 3500 
L 2356 3500 
L 2356 3053 
L 1172 3053 
L 1172 1153 
Q 1172 725 1289 603 
Q 1406 481 1766 481 
L 2356 481 
L 2356 0 
L 1766 0 
Q 1100 0 847 248 
Q 594 497 594 1153 
L 594 3053 
L 172 3053 
L 172 3500 
L 594 3500 
L 594 4494 
L 1172 4494 
z
" transform="scale(0.015625)"/>
     </defs>
     <use xlink:href="#DejaVuSans-15"/>
     <use xlink:href="#DejaVuSans-13" transform="translate(63.625 0)"/>
     <use xlink:href="#DejaVuSans-13" transform="translate(127.25 0)"/>
     <use xlink:href="#DejaVuSans-13" transform="translate(190.875 0)"/>
     <use xlink:href="#DejaVuSans-3" transform="translate(254.5 0)"/>
     <use xlink:href="#DejaVuSans-1d" transform="translate(286.28125 0)"/>
     <use xlink:href="#DejaVuSans-3" transform="translate(319.96875 0)"/>
     <use xlink:href="#DejaVuSans-14" transform="translate(351.75 0)"/>
     <use xlink:href="#DejaVuSans-f" transform="translate(415.375 0)"/>
     <use xlink:href="#DejaVuSans-3" transform="translate(447.15625 0)"/>
     <use xlink:href="#DejaVuSans-56" transform="translate(478.9375 0)"/>
     <use xlink:href="#DejaVuSans-53" transform="translate(531.03125 0)"/>
     <use xlink:href="#DejaVuSans-4f" transform="translate(594.515625 0)"/>
     <use xlink:href="#DejaVuSans-4c" transform="translate(622.296875 0)"/>
     <use xlink:href="#DejaVuSans-57" transform="translate(650.078125 0)"/>
     <use xlink:href="#DejaVuSans-3" transform="translate(689.28125 0)"/>
     <use xlink:href="#DejaVuSans-46" transform="translate(721.0625 0)"/>
     <use xlink:href="#DejaVuSans-52" transform="translate(776.046875 0)"/>
     <use xlink:href="#DejaVuSans-55" transform="translate(837.234375 0)"/>
     <use xlink:href="#DejaVuSans-48" transform="translate(876.140625 0)"/>
    </g>
   </g>
   <g id="text_16">
    <!-- load line conductor -->
    <g transform="translate(143.724375 315.008125) scale(0.1 -0.1)">
     <use xlink:href="#DejaVuSans-4f"/>
     <use xlink:href="#DejaVuSans-52" transform="translate(27.78125 0)"/>
     <use xlink:href="#DejaVuSans-44" transform="translate(88.96875 0)"/>
     <use xlink:href="#DejaVuSans-47" transform="translate(150.25 0)"/>
     <use xlink:href="#DejaVuSans-3" transform="translate(213.734375 0)"/>
     <use xlink:href="#DejaVuSans-4f" transform="translate(245.515625 0)"/>
     <use xlink:href="#DejaVuSans-4c" transform="translate(273.296875 0)"/>
     <use xlink:href="#DejaVuSans-51" transform="translate(301.078125 0)"/>
     <use xlink:href="#DejaVuSans-48" transform="translate(364.453125 0)"/>
     <use xlink:href="#DejaVuSans-3" transform="translate(425.984375 0)"/>
     <use xlink:href="#DejaVuSans-46" transform="translate(457.765625 0)"/>
     <use xlink:href="#DejaVuSans-52" transform="translate(512.75 0)"/>
     <use xlink:href="#DejaVuSans-51" transform="translate(573.9375 0)"/>
     <use xlink:href="#DejaVuSans-47" transform="translate(637.3125 0)"/>
     <use xlink:href="#DejaVuSans-58" transform="translate(700.796875 0)"/>
     <use xlink:href="#DejaVuSans-46" transform="translate(764.171875 0)"/>
     <use xlink:href="#DejaVuSans-57" transform="translate(819.15625 0)"/>
     <use xlink:href="#DejaVuSans-52" transform="translate(858.359375 0)"/>
     <use xlink:href="#DejaVuSans-55" transform="translate(919.546875 0)"/>
    </g>
    <!-- (through core) -->
    <g transform="translate(167.857188 324.039375) scale(0.1 -0.1)">
     <defs>
      <path id="DejaVuSans-4b" d="M 3513 2113 
L 3513 0 
L 2938 0 
L 2938 2094 
Q 2938 2591 2744 2837 
Q 2550 3084 2163 3084 
Q 1697 3084 1428 2787 
Q 1159 2491 1159 1978 
L 1159 0 
L 581 0 
L 581 4863 
L 1159 4863 
L 1159 2956 
Q 1366 3272 1645 3428 
Q 1925 3584 2291 3584 
Q 2894 3584 3203 3211 
Q 3513 2838 3513 2113 
z
" transform="scale(0.015625)"/>
      <path id="DejaVuSans-4a" d="M 2906 1791 
Q 2906 2416 2648 2759 
Q 2391 3103 1925 3103 
Q 1463 3103 1205 2759 
Q 947 2416 947 1791 
Q 947 1169 1205 825 
Q 1463 481 1925 481 
Q 2391 481 2648 825 
Q 2906 1169 2906 1791 
z
M 3481 434 
Q 3481 -459 3084 -895 
Q 2688 -1331 1869 -1331 
Q 1566 -1331 1297 -1286 
Q 1028 -1241 775 -1147 
L 775 -588 
Q 1028 -725 1275 -790 
Q 1522 -856 1778 -856 
Q 2344 -856 2625 -561 
Q 2906 -266 2906 331 
L 2906 616 
Q 2728 306 2450 153 
Q 2172 0 1784 0 
Q 1141 0 747 490 
Q 353 981 353 1791 
Q 353 2603 747 3093 
Q 1141 3584 1784 3584 
Q 2172 3584 2450 3431 
Q 2728 3278 2906 2969 
L 2906 3500 
L 3481 3500 
L 3481 434 
z
" transform="scale(0.015625)"/>
     </defs>
     <use xlink:href="#DejaVuSans-b"/>
     <use xlink:href="#DejaVuSans-57" transform="translate(39.015625 0)"/>
     <use xlink:href="#DejaVuSans-4b" transform="translate(78.21875 0)"/>
     <use xlink:href="#DejaVuSans-55" transform="translate(141.59375 0)"/>
     <use xlink:href="#DejaVuSans-52" transform="translate(180.5 0)"/>
     <use xlink:href="#DejaVuSans-58" transform="translate(241.6875 0)"/>
     <use xlink:href="#DejaVuSans-4a" transform="translate(305.0625 0)"/>
     <use xlink:href="#DejaVuSans-4b" transform="translate(368.546875 0)"/>
     <use xlink:href="#DejaVuSans-3" transform="translate(431.921875 0)"/>
     <use xlink:href="#DejaVuSans-46" transform="translate(463.703125 0)"/>
     <use xlink:href="#DejaVuSans-52" transform="translate(518.6875 0)"/>
     <use xlink:href="#DejaVuSans-55" transform="translate(579.875 0)"/>
     <use xlink:href="#DejaVuSans-48" transform="translate(618.78125 0)"/>
     <use xlink:href="#DejaVuSans-c" transform="translate(680.3125 0)"/>
    </g>
   </g>
   <g id="text_17">
    <!-- R6 -->
    <g transform="translate(359.134531 263.519844) scale(0.1 -0.1)">
     <use xlink:href="#DejaVuSans-35"/>
     <use xlink:href="#DejaVuSans-19" transform="translate(69.484375 0)"/>
    </g>
    <!-- 1 kΩ -->
    <g transform="translate(354.303281 273.679219) scale(0.1 -0.1)">
     <use xlink:href="#DejaVuSans-14"/>
     <use xlink:href="#DejaVuSans-3" transform="translate(63.625 0)"/>
     <use xlink:href="#DejaVuSans-4e" transform="translate(95.40625 0)"/>
     <use xlink:href="#DejaVuSans-33d" transform="translate(153.3125 0)"/>
    </g>
   </g>
   <g id="text_18">
    <!-- C3 -->
    <g transform="translate(414.39 314.919844) scale(0.1 -0.1)">
     <use xlink:href="#DejaVuSans-26"/>
     <use xlink:href="#DejaVuSans-16" transform="translate(69.828125 0)"/>
    </g>
    <!-- 100 nF -->
    <g transform="translate(414.39 324.919844) scale(0.1 -0.1)">
     <use xlink:href="#DejaVuSans-14"/>
     <use xlink:href="#DejaVuSans-13" transform="translate(63.625 0)"/>
     <use xlink:href="#DejaVuSans-13" transform="translate(127.25 0)"/>
     <use xlink:href="#DejaVuSans-3" transform="translate(190.875 0)"/>
     <use xlink:href="#DejaVuSans-51" transform="translate(222.65625 0)"/>
     <use xlink:href="#DejaVuSans-29" transform="translate(286.03125 0)"/>
    </g>
   </g>
   <g id="text_19">
    <!-- R7 (burden)* -->
    <g transform="translate(342.39 325.219844) scale(0.1 -0.1)">
     <defs>
      <path id="DejaVuSans-1a" d="M 525 4666 
L 3525 4666 
L 3525 4397 
L 1831 0 
L 1172 0 
L 2766 4134 
L 525 4134 
L 525 4666 
z
" transform="scale(0.015625)"/>
      <path id="DejaVuSans-d" d="M 3009 3897 
L 1888 3291 
L 3009 2681 
L 2828 2375 
L 1778 3009 
L 1778 1831 
L 1422 1831 
L 1422 3009 
L 372 2375 
L 191 2681 
L 1313 3291 
L 191 3897 
L 372 4206 
L 1422 3572 
L 1422 4750 
L 1778 4750 
L 1778 3572 
L 2828 4206 
L 3009 3897 
z
" transform="scale(0.015625)"/>
     </defs>
     <use xlink:href="#DejaVuSans-35"/>
     <use xlink:href="#DejaVuSans-1a" transform="translate(69.484375 0)"/>
     <use xlink:href="#DejaVuSans-3" transform="translate(133.109375 0)"/>
     <use xlink:href="#DejaVuSans-b" transform="translate(164.890625 0)"/>
     <use xlink:href="#DejaVuSans-45" transform="translate(203.90625 0)"/>
     <use xlink:href="#DejaVuSans-58" transform="translate(267.390625 0)"/>
     <use xlink:href="#DejaVuSans-55" transform="translate(330.765625 0)"/>
     <use xlink:href="#DejaVuSans-47" transform="translate(370.125 0)"/>
     <use xlink:href="#DejaVuSans-48" transform="translate(433.609375 0)"/>
     <use xlink:href="#DejaVuSans-51" transform="translate(495.140625 0)"/>
     <use xlink:href="#DejaVuSans-c" transform="translate(558.515625 0)"/>
     <use xlink:href="#DejaVuSans-d" transform="translate(597.53125 0)"/>
    </g>
    <!-- 66.7 Ω -->
    <g transform="translate(342.39 335.719844) scale(0.1 -0.1)">
     <use xlink:href="#DejaVuSans-19"/>
     <use xlink:href="#DejaVuSans-19" transform="translate(63.625 0)"/>
     <use xlink:href="#DejaVuSans-11" transform="translate(127.25 0)"/>
     <use xlink:href="#DejaVuSans-1a" transform="translate(159.03125 0)"/>
     <use xlink:href="#DejaVuSans-3" transform="translate(222.65625 0)"/>
     <use xlink:href="#DejaVuSans-33d" transform="translate(254.4375 0)"/>
    </g>
   </g>
   <g id="text_20">
    <!-- 3V3 -->
    <g transform="translate(93.207188 494.919844) scale(0.1 -0.1)">
     <use xlink:href="#DejaVuSans-16"/>
     <use xlink:href="#DejaVuSans-39" transform="translate(63.625 0)"/>
     <use xlink:href="#DejaVuSans-16" transform="translate(132.03125 0)"/>
    </g>
   </g>
   <g id="text_21">
    <!-- R3 -->
    <g transform="translate(77.079063 548.919844) scale(0.1 -0.1)">
     <use xlink:href="#DejaVuSans-35"/>
     <use xlink:href="#DejaVuSans-16" transform="translate(69.484375 0)"/>
    </g>
    <!-- 10 kΩ -->
    <g transform="translate(61.054063 559.008125) scale(0.1 -0.1)">
     <use xlink:href="#DejaVuSans-14"/>
     <use xlink:href="#DejaVuSans-13" transform="translate(63.625 0)"/>
     <use xlink:href="#DejaVuSans-3" transform="translate(127.25 0)"/>
     <use xlink:href="#DejaVuSans-4e" transform="translate(159.03125 0)"/>
     <use xlink:href="#DejaVuSans-33d" transform="translate(216.9375 0)"/>
    </g>
   </g>
   <g id="text_22">
    <!-- R4 -->
    <g transform="translate(115.59 620.925312) scale(0.1 -0.1)">
     <use xlink:href="#DejaVuSans-35"/>
     <use xlink:href="#DejaVuSans-17" transform="translate(69.484375 0)"/>
    </g>
    <!-- 10 kΩ -->
    <g transform="translate(115.59 631.008125) scale(0.1 -0.1)">
     <use xlink:href="#DejaVuSans-14"/>
     <use xlink:href="#DejaVuSans-13" transform="translate(63.625 0)"/>
     <use xlink:href="#DejaVuSans-3" transform="translate(127.25 0)"/>
     <use xlink:href="#DejaVuSans-4e" transform="translate(159.03125 0)"/>
     <use xlink:href="#DejaVuSans-33d" transform="translate(216.9375 0)"/>
    </g>
   </g>
   <g id="text_23">
    <!-- C1 -->
    <g transform="translate(9.917344 666.919844) scale(0.1 -0.1)">
     <use xlink:href="#DejaVuSans-26"/>
     <use xlink:href="#DejaVuSans-14" transform="translate(69.828125 0)"/>
    </g>
    <!-- 10 µF -->
    <g transform="translate(2.581406 675.951094) scale(0.1 -0.1)">
     <defs>
      <path id="DejaVuSans-77" d="M 544 -1331 
L 544 3500 
L 1119 3500 
L 1119 1325 
Q 1119 872 1334 640 
Q 1550 409 1972 409 
Q 2434 409 2667 671 
Q 2900 934 2900 1459 
L 2900 3500 
L 3475 3500 
L 3475 806 
Q 3475 619 3529 530 
Q 3584 441 3700 441 
Q 3728 441 3778 458 
Q 3828 475 3916 513 
L 3916 50 
Q 3788 -22 3673 -56 
Q 3559 -91 3450 -91 
Q 3234 -91 3106 31 
Q 2978 153 2931 403 
Q 2775 156 2548 32 
Q 2322 -91 2016 -91 
Q 1697 -91 1473 31 
Q 1250 153 1119 397 
L 1119 -1331 
L 544 -1331 
z
" transform="scale(0.015625)"/>
     </defs>
     <use xlink:href="#DejaVuSans-14"/>
     <use xlink:href="#DejaVuSans-13" transform="translate(63.625 0)"/>
     <use xlink:href="#DejaVuSans-3" transform="translate(127.25 0)"/>
     <use xlink:href="#DejaVuSans-77" transform="translate(159.03125 0)"/>
     <use xlink:href="#DejaVuSans-29" transform="translate(222.65625 0)"/>
    </g>
   </g>
   <g id="text_24">
    <!-- * SCT-013-030 has its internal burden; R7 shown for the bare-CT variant. -->
    <g transform="translate(277.57875 645.876172) scale(0.09 -0.09)">
     <defs>
      <path id="DejaVuSans-1e" d="M 750 3309 
L 1409 3309 
L 1409 2516 
L 750 2516 
L 750 3309 
z
M 750 794 
L 1409 794 
L 1409 256 
L 897 -744 
L 494 -744 
L 750 256 
L 750 794 
z
" transform="scale(0.015625)"/>
      <path id="DejaVuSans-5a" d="M 269 3500 
L 844 3500 
L 1563 769 
L 2278 3500 
L 2956 3500 
L 3675 769 
L 4391 3500 
L 4966 3500 
L 4050 0 
L 3372 0 
L 2619 2869 
L 1863 0 
L 1184 0 
L 269 3500 
z
" transform="scale(0.015625)"/>
      <path id="DejaVuSans-49" d="M 2375 4863 
L 2375 4384 
L 1825 4384 
Q 1516 4384 1395 4259 
Q 1275 4134 1275 3809 
L 1275 3500 
L 2222 3500 
L 2222 3053 
L 1275 3053 
L 1275 0 
L 697 0 
L 697 3053 
L 147 3053 
L 147 3500 
L 697 3500 
L 697 3744 
Q 697 4328 969 4595 
Q 1241 4863 1831 4863 
L 2375 4863 
z
" transform="scale(0.015625)"/>
      <path id="DejaVuSans-59" d="M 191 3500 
L 800 3500 
L 1894 563 
L 2988 3500 
L 3597 3500 
L 2284 0 
L 1503 0 
L 191 3500 
z
" transform="scale(0.015625)"/>
     </defs>
     <use xlink:href="#DejaVuSans-d"/>
     <use xlink:href="#DejaVuSans-3" transform="translate(50 0)"/>
     <use xlink:href="#DejaVuSans-36" transform="translate(81.78125 0)"/>
     <use xlink:href="#DejaVuSans-26" transform="translate(145.265625 0)"/>
     <use xlink:href="#DejaVuSans-37" transform="translate(215.09375 0)"/>
     <use xlink:href="#DejaVuSans-10" transform="translate(267 0)"/>
     <use xlink:href="#DejaVuSans-13" transform="translate(303.078125 0)"/>
     <use xlink:href="#DejaVuSans-14" transform="translate(366.703125 0)"/>
     <use xlink:href="#DejaVuSans-16" transform="translate(430.328125 0)"/>
     <use xlink:href="#DejaVuSans-10" transform="translate(493.953125 0)"/>
     <use xlink:href="#DejaVuSans-13" transform="translate(530.03125 0)"/>
     <use xlink:href="#DejaVuSans-16" transform="translate(593.65625 0)"/>
     <use xlink:href="#DejaVuSans-13" transform="translate(657.28125 0)"/>
     <use xlink:href="#DejaVuSans-3" transform="translate(720.90625 0)"/>
     <use xlink:href="#DejaVuSans-4b" transform="translate(752.6875 0)"/>
     <use xlink:href="#DejaVuSans-44" transform="translate(816.0625 0)"/>
     <use xlink:href="#DejaVuSans-56" transform="translate(877.34375 0)"/>
     <use xlink:href="#DejaVuSans-3" transform="translate(929.4375 0)"/>
     <use xlink:href="#DejaVuSans-4c" transform="translate(961.21875 0)"/>
     <use xlink:href="#DejaVuSans-57" transform="translate(989 0)"/>
     <use xlink:href="#DejaVuSans-56" transform="translate(1028.203125 0)"/>
     <use xlink:href="#DejaVuSans-3" transform="translate(1080.296875 0)"/>
     <use xlink:href="#DejaVuSans-4c" transform="translate(1112.078125 0)"/>
     <use xlink:href="#DejaVuSans-51" transform="translate(1139.859375 0)"/>
     <use xlink:href="#DejaVuSans-57" transform="translate(1203.234375 0)"/>
     <use xlink:href="#DejaVuSans-48" transform="translate(1242.4375 0)"/>
     <use xlink:href="#DejaVuSans-55" transform="translate(1303.96875 0)"/>
     <use xlink:href="#DejaVuSans-51" transform="translate(1343.328125 0)"/>
     <use xlink:href="#DejaVuSans-44" transform="translate(1406.703125 0)"/>
     <use xlink:href="#DejaVuSans-4f" transform="translate(1467.984375 0)"/>
     <use xlink:href="#DejaVuSans-3" transform="translate(1495.765625 0)"/>
     <use xlink:href="#DejaVuSans-45" transform="translate(1527.546875 0)"/>
     <use xlink:href="#DejaVuSans-58" transform="translate(1591.03125 0)"/>
     <use xlink:href="#DejaVuSans-55" transform="translate(1654.40625 0)"/>
     <use xlink:href="#DejaVuSans-47" transform="translate(1693.765625 0)"/>
     <use xlink:href="#DejaVuSans-48" transform="translate(1757.25 0)"/>
     <use xlink:href="#DejaVuSans-51" transform="translate(1818.78125 0)"/>
     <use xlink:href="#DejaVuSans-1e" transform="translate(1882.15625 0)"/>
     <use xlink:href="#DejaVuSans-3" transform="translate(1915.84375 0)"/>
     <use xlink:href="#DejaVuSans-35" transform="translate(1947.625 0)"/>
     <use xlink:href="#DejaVuSans-1a" transform="translate(2017.109375 0)"/>
     <use xlink:href="#DejaVuSans-3" transform="translate(2080.734375 0)"/>
     <use xlink:href="#DejaVuSans-56" transform="translate(2112.515625 0)"/>
     <use xlink:href="#DejaVuSans-4b" transform="translate(2164.609375 0)"/>
     <use xlink:href="#DejaVuSans-52" transform="translate(2227.984375 0)"/>
     <use xlink:href="#DejaVuSans-5a" transform="translate(2289.171875 0)"/>
     <use xlink:href="#DejaVuSans-51" transform="translate(2370.953125 0)"/>
     <use xlink:href="#DejaVuSans-3" transform="translate(2434.328125 0)"/>
     <use xlink:href="#DejaVuSans-49" transform="translate(2466.109375 0)"/>
     <use xlink:href="#DejaVuSans-52" transform="translate(2501.3125 0)"/>
     <use xlink:href="#DejaVuSans-55" transform="translate(2562.5 0)"/>
     <use xlink:href="#DejaVuSans-3" transform="translate(2603.609375 0)"/>
     <use xlink:href="#DejaVuSans-57" transform="translate(2635.390625 0)"/>
     <use xlink:href="#DejaVuSans-4b" transform="translate(2674.59375 0)"/>
     <use xlink:href="#DejaVuSans-48" transform="translate(2737.96875 0)"/>
     <use xlink:href="#DejaVuSans-3" transform="translate(2799.5 0)"/>
     <use xlink:href="#DejaVuSans-45" transform="translate(2831.28125 0)"/>
     <use xlink:href="#DejaVuSans-44" transform="translate(2894.765625 0)"/>
     <use xlink:href="#DejaVuSans-55" transform="translate(2956.046875 0)"/>
     <use xlink:href="#DejaVuSans-48" transform="translate(2994.953125 0)"/>
     <use xlink:href="#DejaVuSans-10" transform="translate(3056.484375 0)"/>
     <use xlink:href="#DejaVuSans-26" transform="translate(3092.5625 0)"/>
     <use xlink:href="#DejaVuSans-37" transform="translate(3162.390625 0)"/>
     <use xlink:href="#DejaVuSans-3" transform="translate(3223.46875 0)"/>
     <use xlink:href="#DejaVuSans-59" transform="translate(3255.25 0)"/>
     <use xlink:href="#DejaVuSans-44" transform="translate(3314.4375 0)"/>
     <use xlink:href="#DejaVuSans-55" transform="translate(3375.71875 0)"/>
     <use xlink:href="#DejaVuSans-4c" transform="translate(3416.828125 0)"/>
     <use xlink:href="#DejaVuSans-44" transform="translate(3444.609375 0)"/>
     <use xlink:href="#DejaVuSans-51" transform="translate(3505.890625 0)"/>
     <use xlink:href="#DejaVuSans-57" transform="translate(3569.265625 0)"/>
     <use xlink:href="#DejaVuSans-11" transform="translate(3608.46875 0)"/>
    </g>
    <!-- Anti-aliasing: fc = 1/(2π·1k·100n) ≈ 1.6 kHz; firmware samples at 5 kHz. -->
    <g transform="translate(278.58 654.463437) scale(0.09 -0.09)">
     <defs>
      <path id="DejaVuSans-20" d="M 678 2906 
L 4684 2906 
L 4684 2381 
L 678 2381 
L 678 2906 
z
M 678 1631 
L 4684 1631 
L 4684 1100 
L 678 1100 
L 678 1631 
z
" transform="scale(0.015625)"/>
      <path id="DejaVuSans-354" d="M 231 3500 
L 3584 3500 
L 3584 2925 
L 3144 2925 
L 3144 775 
Q 3144 550 3220 451 
Q 3297 353 3469 353 
Q 3516 353 3584 361 
Q 3653 369 3675 372 
L 3675 -44 
Q 3566 -84 3450 -103 
Q 3334 -122 3219 -122 
Q 2844 -122 2700 83 
Q 2556 288 2556 838 
L 2556 2925 
L 1266 2925 
L 1266 0 
L 678 0 
L 678 2925 
L 231 2925 
L 231 3500 
z
" transform="scale(0.015625)"/>
      <path id="DejaVuSans-79" d="M 684 2619 
L 1344 2619 
L 1344 1825 
L 684 1825 
L 684 2619 
z
" transform="scale(0.015625)"/>
      <path id="DejaVuSans-cd2" d="M 4684 1947 
L 4684 1388 
Q 4356 1144 4076 1036 
Q 3797 928 3494 928 
Q 3150 928 2694 1113 
Q 2663 1125 2641 1134 
Q 2622 1141 2575 1159 
Q 2091 1350 1797 1350 
Q 1522 1350 1253 1231 
Q 984 1113 678 850 
L 678 1409 
Q 1006 1653 1286 1761 
Q 1566 1869 1869 1869 
Q 2213 1869 2672 1684 
Q 2706 1669 2722 1663 
Q 2741 1656 2788 1638 
Q 3272 1447 3566 1447 
Q 3834 1447 4098 1564 
Q 4363 1681 4684 1947 
z
M 4684 3163 
L 4684 2606 
Q 4356 2359 4076 2251 
Q 3797 2144 3494 2144 
Q 3150 2144 2694 2328 
Q 2663 2341 2641 2350 
Q 2622 2356 2575 2375 
Q 2091 2566 1797 2566 
Q 1522 2566 1253 2447 
Q 984 2328 678 2069 
L 678 2625 
Q 1006 2869 1286 2976 
Q 1566 3084 1869 3084 
Q 2213 3084 2672 2900 
Q 2703 2888 2719 2881 
Q 2741 2872 2788 2853 
Q 3272 2663 3566 2663 
Q 3834 2663 4098 2780 
Q 4363 2897 4684 3163 
z
" transform="scale(0.015625)"/>
      <path id="DejaVuSans-13af" d="M 3431 3500 
L 3431 0 
L 2853 0 
L 2853 3053 
L 1275 3053 
L 1275 0 
L 697 0 
L 697 3053 
L 147 3053 
L 147 3500 
L 697 3500 
L 697 3744 
Q 697 4316 967 4589 
Q 1238 4863 1797 4863 
L 2375 4863 
L 2375 4384 
L 1825 4384 
Q 1516 4384 1395 4259 
Q 1275 4134 1275 3809 
L 1275 3500 
L 3431 3500 
z
M 2853 4856 
L 3431 4856 
L 3431 4128 
L 2853 4128 
L 2853 4856 
z
" transform="scale(0.015625)"/>
     </defs>
     <use xlink:href="#DejaVuSans-24"/>
     <use xlink:href="#DejaVuSans-51" transform="translate(68.40625 0)"/>
     <use xlink:href="#DejaVuSans-57" transform="translate(131.78125 0)"/>
     <use xlink:href="#DejaVuSans-4c" transform="translate(170.984375 0)"/>
     <use xlink:href="#DejaVuSans-10" transform="translate(198.765625 0)"/>
     <use xlink:href="#DejaVuSans-44" transform="translate(234.84375 0)"/>
     <use xlink:href="#DejaVuSans-4f" transform="translate(296.125 0)"/>
     <use xlink:href="#DejaVuSans-4c" transform="translate(323.90625 0)"/>
     <use xlink:href="#DejaVuSans-44" transform="translate(351.6875 0)"/>
     <use xlink:href="#DejaVuSans-56" transform="translate(412.96875 0)"/>
     <use xlink:href="#DejaVuSans-4c" transform="translate(465.0625 0)"/>
     <use xlink:href="#DejaVuSans-51" transform="translate(492.84375 0)"/>
     <use xlink:href="#DejaVuSans-4a" transform="translate(556.21875 0)"/>
     <use xlink:href="#DejaVuSans-1d" transform="translate(619.703125 0)"/>
     <use xlink:href="#DejaVuSans-3" transform="translate(653.390625 0)"/>
     <use xlink:href="#DejaVuSans-49" transform="translate(685.171875 0)"/>
     <use xlink:href="#DejaVuSans-46" transform="translate(720.375 0)"/>
     <use xlink:href="#DejaVuSans-3" transform="translate(775.359375 0)"/>
     <use xlink:href="#DejaVuSans-20" transform="translate(807.140625 0)"/>
     <use xlink:href="#DejaVuSans-3" transform="translate(890.9375 0)"/>
     <use xlink:href="#DejaVuSans-14" transform="translate(922.71875 0)"/>
     <use xlink:href="#DejaVuSans-12" transform="translate(986.34375 0)"/>
     <use xlink:href="#DejaVuSans-b" transform="translate(1020.03125 0)"/>
     <use xlink:href="#DejaVuSans-15" transform="translate(1059.046875 0)"/>
     <use xlink:href="#DejaVuSans-354" transform="translate(1122.671875 0)"/>
     <use xlink:href="#DejaVuSans-79" transform="translate(1182.875 0)"/>
     <use xlink:href="#DejaVuSans-14" transform="translate(1214.65625 0)"/>
     <use xlink:href="#DejaVuSans-4e" transform="translate(1278.28125 0)"/>
     <use xlink:href="#DejaVuSans-79" transform="translate(1336.1875 0)"/>
     <use xlink:href="#DejaVuSans-14" transform="translate(1367.96875 0)"/>
     <use xlink:href="#DejaVuSans-13" transform="translate(1431.59375 0)"/>
     <use xlink:href="#DejaVuSans-13" transform="translate(1495.21875 0)"/>
     <use xlink:href="#DejaVuSans-51" transform="translate(1558.84375 0)"/>
     <use xlink:href="#DejaVuSans-c" transform="translate(1622.21875 0)"/>
     <use xlink:href="#DejaVuSans-3" transform="translate(1661.234375 0)"/>
     <use xlink:href="#DejaVuSans-cd2" transform="translate(1693.015625 0)"/>
     <use xlink:href="#DejaVuSans-3" transform="translate(1776.8125 0)"/>
     <use xlink:href="#DejaVuSans-14" transform="translate(1808.59375 0)"/>
     <use xlink:href="#DejaVuSans-11" transform="translate(1872.21875 0)"/>
     <use xlink:href="#DejaVuSans-19" transform="translate(1904 0)"/>
     <use xlink:href="#DejaVuSans-3" transform="translate(1967.625 0)"/>
     <use xlink:href="#DejaVuSans-4e" transform="translate(1999.40625 0)"/>
     <use xlink:href="#DejaVuSans-2b" transform="translate(2057.3125 0)"/>
     <use xlink:href="#DejaVuSans-5d" transform="translate(2132.515625 0)"/>
     <use xlink:href="#DejaVuSans-1e" transform="translate(2185 0)"/>
     <use xlink:href="#DejaVuSans-3" transform="translate(2218.6875 0)"/>
     <use xlink:href="#DejaVuSans-13af" transform="translate(2250.46875 0)"/>
     <use xlink:href="#DejaVuSans-55" transform="translate(2313.453125 0)"/>
     <use xlink:href="#DejaVuSans-50" transform="translate(2352.8125 0)"/>
     <use xlink:href="#DejaVuSans-5a" transform="translate(2450.21875 0)"/>
     <use xlink:href="#DejaVuSans-44" transform="translate(2532 0)"/>
     <use xlink:href="#DejaVuSans-55" transform="translate(2593.28125 0)"/>
     <use xlink:href="#DejaVuSans-48" transform="translate(2632.1875 0)"/>
     <use xlink:href="#DejaVuSans-3" transform="translate(2693.71875 0)"/>
     <use xlink:href="#DejaVuSans-56" transform="translate(2725.5 0)"/>
     <use xlink:href="#DejaVuSans-44" transform="translate(2777.59375 0)"/>
     <use xlink:href="#DejaVuSans-50" transform="translate(2838.875 0)"/>
     <use xlink:href="#DejaVuSans-53" transform="translate(2936.28125 0)"/>
     <use xlink:href="#DejaVuSans-4f" transform="translate(2999.765625 0)"/>
     <use xlink:href="#DejaVuSans-48" transform="translate(3027.546875 0)"/>
     <use xlink:href="#DejaVuSans-56" transform="translate(3089.078125 0)"/>
     <use xlink:href="#DejaVuSans-3" transform="translate(3141.171875 0)"/>
     <use xlink:href="#DejaVuSans-44" transform="translate(3172.953125 0)"/>
     <use xlink:href="#DejaVuSans-57" transform="translate(3234.234375 0)"/>
     <use xlink:href="#DejaVuSans-3" transform="translate(3273.4375 0)"/>
     <use xlink:href="#DejaVuSans-18" transform="translate(3305.21875 0)"/>
     <use xlink:href="#DejaVuSans-3" transform="translate(3368.84375 0)"/>
     <use xlink:href="#DejaVuSans-4e" transform="translate(3400.625 0)"/>
     <use xlink:href="#DejaVuSans-2b" transform="translate(3458.53125 0)"/>
     <use xlink:href="#DejaVuSans-5d" transform="translate(3533.734375 0)"/>
     <use xlink:href="#DejaVuSans-11" transform="translate(3586.21875 0)"/>
    </g>
   </g>
   <g id="patch_21">
    <path d="M 207.39 41.78 
C 208.106048 41.78 208.792866 41.495511 209.299188 40.989188 
C 209.805511 40.482866 210.09 39.796048 210.09 39.08 
C 210.09 38.363952 209.805511 37.677134 209.299188 37.170812 
C 208.792866 36.664489 208.106048 36.38 207.39 36.38 
C 206.673952 36.38 205.987134 36.664489 205.480812 37.170812 
C 204.974489 37.677134 204.69 38.363952 204.69 39.08 
C 204.69 39.796048 204.974489 40.482866 205.480812 40.989188 
C 205.987134 41.495511 206.673952 41.78 207.39 41.78 
z
" clip-path="url(#p16f58f17fd)" style="stroke: #000000; stroke-width: 2; stroke-linejoin: miter"/>
   </g>
   <g id="patch_22">
    <path d="M 279.39 41.78 
C 280.106048 41.78 280.792866 41.495511 281.299188 40.989188 
C 281.805511 40.482866 282.09 39.796048 282.09 39.08 
C 282.09 38.363952 281.805511 37.677134 281.299188 37.170812 
C 280.792866 36.664489 280.106048 36.38 279.39 36.38 
C 278.673952 36.38 277.987134 36.664489 277.480812 37.170812 
C 276.974489 37.677134 276.69 38.363952 276.69 39.08 
C 276.69 39.796048 276.974489 40.482866 277.480812 40.989188 
C 277.987134 41.495511 278.673952 41.78 279.39 41.78 
z
" clip-path="url(#p16f58f17fd)" style="stroke: #000000; stroke-width: 2; stroke-linejoin: miter"/>
   </g>
   <g id="patch_23">
    <path d="M 207.39 120.98 
C 208.106048 120.98 208.792866 120.695511 209.299188 120.189188 
C 209.805511 119.682866 210.09 118.996048 210.09 118.28 
C 210.09 117.563952 209.805511 116.877134 209.299188 116.370812 
C 208.792866 115.864489 208.106048 115.58 207.39 115.58 
C 206.673952 115.58 205.987134 115.864489 205.480812 116.370812 
C 204.974489 116.877134 204.69 117.563952 204.69 118.28 
C 204.69 118.996048 204.974489 119.682866 205.480812 120.189188 
C 205.987134 120.695511 206.673952 120.98 207.39 120.98 
z
" clip-path="url(#p16f58f17fd)" style="stroke: #000000; stroke-width: 2; stroke-linejoin: miter"/>
   </g>
   <g id="patch_24">
    <path d="M 329.79 290.18 
C 330.506048 290.18 331.192866 289.895511 331.699188 289.389188 
C 332.205511 288.882866 332.49 288.196048 332.49 287.48 
C 332.49 286.763952 332.205511 286.077134 331.699188 285.570812 
C 331.192866 285.064489 330.506048 284.78 329.79 284.78 
C 329.073952 284.78 328.387134 285.064489 327.880812 285.570812 
C 327.374489 286.077134 327.09 286.763952 327.09 287.48 
C 327.09 288.196048 327.374489 288.882866 327.880812 289.389188 
C 328.387134 289.895511 329.073952 290.18 329.79 290.18 
z
" clip-path="url(#p16f58f17fd)" style="stroke: #000000; stroke-width: 2; stroke-linejoin: miter"/>
   </g>
   <g id="patch_25">
    <path d="M 401.79 290.18 
C 402.506048 290.18 403.192866 289.895511 403.699188 289.389188 
C 404.205511 288.882866 404.49 288.196048 404.49 287.48 
C 404.49 286.763952 404.205511 286.077134 403.699188 285.570812 
C 403.192866 285.064489 402.506048 284.78 401.79 284.78 
C 401.073952 284.78 400.387134 285.064489 399.880812 285.570812 
C 399.374489 286.077134 399.09 286.763952 399.09 287.48 
C 399.09 288.196048 399.374489 288.882866 399.880812 289.389188 
C 400.387134 289.895511 401.073952 290.18 401.79 290.18 
z
" clip-path="url(#p16f58f17fd)" style="stroke: #000000; stroke-width: 2; stroke-linejoin: miter"/>
   </g>
   <g id="patch_26">
    <path d="M 329.79 369.38 
C 330.506048 369.38 331.192866 369.095511 331.699188 368.589188 
C 332.205511 368.082866 332.49 367.396048 332.49 366.68 
C 332.49 365.963952 332.205511 365.277134 331.699188 364.770812 
C 331.192866 364.264489 330.506048 363.98 329.79 363.98 
C 329.073952 363.98 328.387134 364.264489 327.880812 364.770812 
C 327.374489 365.277134 327.09 365.963952 327.09 366.68 
C 327.09 367.396048 327.374489 368.082866 327.880812 368.589188 
C 328.387134 369.095511 329.073952 369.38 329.79 369.38 
z
" clip-path="url(#p16f58f17fd)" style="stroke: #000000; stroke-width: 2; stroke-linejoin: miter"/>
   </g>
   <g id="patch_27">
    <path d="M 102.99 588.98 
C 103.706048 588.98 104.392866 588.695511 104.899188 588.189188 
C 105.405511 587.682866 105.69 586.996048 105.69 586.28 
C 105.69 585.563952 105.405511 584.877134 104.899188 584.370812 
C 104.392866 583.864489 103.706048 583.58 102.99 583.58 
C 102.273952 583.58 101.587134 583.864489 101.080812 584.370812 
C 100.574489 584.877134 100.29 585.563952 100.29 586.28 
C 100.29 586.996048 100.574489 587.682866 101.080812 588.189188 
C 101.587134 588.695511 102.273952 588.98 102.99 588.98 
z
" clip-path="url(#p16f58f17fd)" style="stroke: #000000; stroke-width: 2; stroke-linejoin: miter"/>
   </g>
   <g id="text_25">
    <!-- V_BIAS = 1.65 V -->
    <g transform="translate(94.459531 607.312031) scale(0.1 -0.1)">
     <use xlink:href="#DejaVuSans-39"/>
     <use xlink:href="#DejaVuSans-42" transform="translate(68.40625 0)"/>
     <use xlink:href="#DejaVuSans-25" transform="translate(118.40625 0)"/>
     <use xlink:href="#DejaVuSans-2c" transform="translate(187.015625 0)"/>
     <use xlink:href="#DejaVuSans-24" transform="translate(216.515625 0)"/>
     <use xlink:href="#DejaVuSans-36" transform="translate(284.921875 0)"/>
     <use xlink:href="#DejaVuSans-3" transform="translate(348.40625 0)"/>
     <use xlink:href="#DejaVuSans-20" transform="translate(380.1875 0)"/>
     <use xlink:href="#DejaVuSans-3" transform="translate(463.984375 0)"/>
     <use xlink:href="#DejaVuSans-14" transform="translate(495.765625 0)"/>
     <use xlink:href="#DejaVuSans-11" transform="translate(559.390625 0)"/>
     <use xlink:href="#DejaVuSans-19" transform="translate(591.171875 0)"/>
     <use xlink:href="#DejaVuSans-18" transform="translate(654.796875 0)"/>
     <use xlink:href="#DejaVuSans-3" transform="translate(718.421875 0)"/>
     <use xlink:href="#DejaVuSans-39" transform="translate(750.203125 0)"/>
    </g>
   </g>
   <g id="patch_28">
    <path d="M 207.39 588.98 
C 208.106048 588.98 208.792866 588.695511 209.299188 588.189188 
C 209.805511 587.682866 210.09 586.996048 210.09 586.28 
C 210.09 585.563952 209.805511 584.877134 209.299188 584.370812 
C 208.792866 583.864489 208.106048 583.58 207.39 583.58 
C 206.673952 583.58 205.987134 583.864489 205.480812 584.370812 
C 204.974489 584.877134 204.69 585.563952 204.69 586.28 
C 204.69 586.996048 204.974489 587.682866 205.480812 588.189188 
C 205.987134 588.695511 206.673952 588.98 207.39 588.98 
z
" clip-path="url(#p16f58f17fd)" style="stroke: #000000; stroke-width: 2; stroke-linejoin: miter"/>
   </g>
  </g>
 </g>
 <defs>
  <clipPath id="p16f58f17fd">
   <rect x="0" y="-0" width="911.61" height="686"/>
  </clipPath>
 </defs>
</svg>
