<svg xmlns="http://www.w3.org/2000/svg" xmlns:xlink="http://www.w3.org/1999/xlink" width="876.267" height="506pt" viewBox="-4.6 -407.8 657.2 506" xml:lang="en"><path d="M 0.0,-246.6 L 0,-403.2 L 648,-403.2 L 648,-246.6 L 0,-246.6" style="stroke:#94a3b8;fill:#f8fafc;stroke-width:1;stroke-dasharray:-;stroke-linecap:round;stroke-linejoin:round"/><path d="M 0.0,-81.0 L 0,-230.4 L 648,-230.4 L 648,-81 L 0,-81" style="stroke:#94a3b8;fill:#f8fafc;stroke-width:1;stroke-dasharray:-;stroke-linecap:round;stroke-linejoin:round"/><path d="M 0.0,93.60000000000001 L 0,-64.8 L 307.8,-64.8 L 307.8,93.6 L 0,93.6" style="stroke:#94a3b8;fill:#f8fafc;stroke-width:1;stroke-dasharray:-;stroke-linecap:round;stroke-linejoin:round"/><path d="M 322.2,93.60000000000001 L 322.2,-64.8 L 648,-64.8 L 648,93.6 L 322.2,93.6" style="stroke:#94a3b8;fill:#f8fafc;stroke-width:1;stroke-dasharray:-;stroke-linecap:round;stroke-linejoin:round"/><circle cx="36" cy="-310.5" r="18" style="stroke:#000;fill:none;stroke-width:1.5;stroke-dasharray:-"/><path d="M 126 -284.4 a 7.2 7.2 0 1 1 0 14.4" style="stroke:#000;fill:none;stroke-width:1.5;stroke-dasharray:-"/><path d="M 126 -298.8 a 7.2 7.2 0 1 1 0 14.4" style="stroke:#000;fill:none;stroke-width:1.5;stroke-dasharray:-"/><path d="M 126 -313.2 a 7.2 7.2 0 1 1 0 14.4" style="stroke:#000;fill:none;stroke-width:1.5;stroke-dasharray:-"/><path d="M 126 -327.6 a 7.2 7.2 0 1 1 0 14.4" style="stroke:#000;fill:none;stroke-width:1.5;stroke-dasharray:-"/><path d="M 126 -342 a 7.2 7.2 0 1 1 0 14.4" style="stroke:#000;fill:none;stroke-width:1.5;stroke-dasharray:-"/><path d="M 162 -270 a 7.2 7.2 0 1 1 0 -14.4" style="stroke:#000;fill:none;stroke-width:1.5;stroke-dasharray:-"/><path d="M 162 -284.4 a 7.2 7.2 0 1 1 0 -14.4" style="stroke:#000;fill:none;stroke-width:1.5;stroke-dasharray:-"/><path d="M 162 -298.8 a 7.2 7.2 0 1 1 0 -14.4" style="stroke:#000;fill:none;stroke-width:1.5;stroke-dasharray:-"/><path d="M 162 -313.2 a 7.2 7.2 0 1 1 0 -14.4" style="stroke:#000;fill:none;stroke-width:1.5;stroke-dasharray:-"/><path d="M 162 -327.6 a 7.2 7.2 0 1 1 0 -14.4" style="stroke:#000;fill:none;stroke-width:1.5;stroke-dasharray:-"/><polygon points="279 -342 290.25 -353.25 360 -353.25 360 -330.75 290.25 -330.75" style="stroke:#000;fill:none;stroke-width:1.5;stroke-dasharray:-;stroke-linecap:round;stroke-linejoin:round"/><polygon points="270 -282.6 281.25 -293.85 322.2 -293.85 322.2 -271.35 281.25 -271.35" style="stroke:#000;fill:none;stroke-width:1.5;stroke-dasharray:-;stroke-linecap:round;stroke-linejoin:round"/><path d="M 111.6 -135 a 7.2 7.2 0 1 1 0 14.4" style="stroke:#000;fill:none;stroke-width:1.5;stroke-dasharray:-"/><path d="M 111.6 -149.4 a 7.2 7.2 0 1 1 0 14.4" style="stroke:#000;fill:none;stroke-width:1.5;stroke-dasharray:-"/><path d="M 147.6 -91.8 a 7.2 7.2 0 1 1 0 -14.4" style="stroke:#000;fill:none;stroke-width:1.5;stroke-dasharray:-"/><path d="M 147.6 -106.2 a 7.2 7.2 0 1 1 0 -14.4" style="stroke:#000;fill:none;stroke-width:1.5;stroke-dasharray:-"/><path d="M 147.6 -120.6 a 7.2 7.2 0 1 1 0 -14.4" style="stroke:#000;fill:none;stroke-width:1.5;stroke-dasharray:-"/><path d="M 147.6 -135 a 7.2 7.2 0 1 1 0 -14.4" style="stroke:#000;fill:none;stroke-width:1.5;stroke-dasharray:-"/><path d="M 147.6 -149.4 a 7.2 7.2 0 1 1 0 -14.4" style="stroke:#000;fill:none;stroke-width:1.5;stroke-dasharray:-"/><path d="M 147.6 -163.8 a 7.2 7.2 0 1 1 0 -14.4" style="stroke:#000;fill:none;stroke-width:1.5;stroke-dasharray:-"/><polygon points="264.6 -178.2 275.85 -189.45 345.6 -189.45 345.6 -166.95 275.85 -166.95" style="stroke:#000;fill:none;stroke-width:1.5;stroke-dasharray:-;stroke-linecap:round;stroke-linejoin:round"/><polygon points="255.6 -118.8 266.85 -130.05 307.8 -130.05 307.8 -107.55 266.85 -107.55" style="stroke:#000;fill:none;stroke-width:1.5;stroke-dasharray:-;stroke-linecap:round;stroke-linejoin:round"/><polygon points="171 18 182.25 6.75 234 6.75 234 29.25 182.25 29.25" style="stroke:#000;fill:none;stroke-width:1.5;stroke-dasharray:-;stroke-linecap:round;stroke-linejoin:round"/><polygon points="392.4 -9 381.15 2.25 352.8 2.25 352.8 -20.25 381.15 -20.25" style="stroke:#000;fill:none;stroke-width:1.5;stroke-dasharray:-;stroke-linecap:round;stroke-linejoin:round"/><polygon points="392.4 3 381.15 14.25 352.8 14.25 352.8 -8.25 381.15 -8.25" style="stroke:#000;fill:none;stroke-width:1.5;stroke-dasharray:-;stroke-linecap:round;stroke-linejoin:round"/><polygon points="392.4 15 381.15 26.25 352.8 26.25 352.8 3.75 381.15 3.75" style="stroke:#000;fill:none;stroke-width:1.5;stroke-dasharray:-;stroke-linecap:round;stroke-linejoin:round"/><path d="M 36.0,-279.0 L 36,-292.5 L 36,-292.5 M 36,-328.5 L 36,-328.5 L 36,-342" style="stroke:#000;fill:none;stroke-width:1.5;stroke-dasharray:-;stroke-linecap:round;stroke-linejoin:round"/><path d="M 45.0,-310.5 L 44.25,-312.363 L 43.5,-314.1 L 42.75,-315.591 L 42,-316.735 L 41.25,-317.455 L 40.5,-317.7 L 39.75,-317.455 L 39,-316.735 L 38.25,-315.591 L 37.5,-314.1 L 36.75,-312.363 L 36,-310.5 L 35.25,-308.637 L 34.5,-306.9 L 33.75,-305.409 L 33,-304.265 L 32.25,-303.545 L 31.5,-303.3 L 30.75,-303.545 L 30,-304.265 L 29.25,-305.409 L 28.5,-306.9 L 27.75,-308.637 L 27,-310.5" style="stroke:#000;fill:none;stroke-width:1.5;stroke-dasharray:-;stroke-linecap:round;stroke-linejoin:round"/><path d="M 36.0,-342.0 L 44.1,-342 L 52.2,-342" style="stroke:#000;fill:none;stroke-width:1.5;stroke-dasharray:-;stroke-linecap:round;stroke-linejoin:round"/><path d="M 52.199999999999996,-342.0 L 64.8,-342 L 67.8,-351 L 73.8,-333 L 79.8,-351 L 85.8,-333 L 91.8,-351 L 97.8,-333 L 100.8,-342 L 113.4,-342" style="stroke:#000;fill:none;stroke-width:1.5;stroke-dasharray:-;stroke-linecap:round;stroke-linejoin:round"/><path d="M 113.4,-342.0 L 119.7,-342 L 126,-342" style="stroke:#000;fill:none;stroke-width:1.5;stroke-dasharray:-;stroke-linecap:round;stroke-linejoin:round"/><path d="M 140.4,-342.0 L 140.4,-270" style="stroke:#000;fill:none;stroke-width:1.5;stroke-dasharray:-;stroke-linecap:round;stroke-linejoin:round"/><path d="M 147.60000000000002,-342.0 L 147.6,-270" style="stroke:#000;fill:none;stroke-width:1.5;stroke-dasharray:-;stroke-linecap:round;stroke-linejoin:round"/><path d="M 126.00000000000001,-270.0 L 81,-270 L 36,-270" style="stroke:#000;fill:none;stroke-width:1.5;stroke-dasharray:-;stroke-linecap:round;stroke-linejoin:round"/><path d="M 36.0,-270.0 L 36,-274.5 L 36,-279" style="stroke:#000;fill:none;stroke-width:1.5;stroke-dasharray:-;stroke-linecap:round;stroke-linejoin:round"/><path d="M 162.0,-342.0 L 176.4,-342 L 190.8,-342" style="stroke:#000;fill:none;stroke-width:1.5;stroke-dasharray:-;stroke-linecap:round;stroke-linejoin:round"/><path d="M 190.79999999999998,-342.0 L 202.5,-342 L 205.5,-351 L 211.5,-333 L 217.5,-351 L 223.5,-333 L 229.5,-351 L 235.5,-333 L 238.5,-342 L 250.2,-342" style="stroke:#000;fill:none;stroke-width:1.5;stroke-dasharray:-;stroke-linecap:round;stroke-linejoin:round"/><path d="M 250.2,-342.0 L 256.5,-342 L 262.8,-342" style="stroke:#000;fill:none;stroke-width:1.5;stroke-dasharray:-;stroke-linecap:round;stroke-linejoin:round"/><path d="M 262.79999999999995,-342.0 L 262.8,-324.54 M 271.8,-324.54 L 253.8,-324.54 M 271.8,-318.06 L 253.8,-318.06 M 262.8,-318.06 L 262.8,-300.6" style="stroke:#000;fill:none;stroke-width:1.5;stroke-dasharray:-;stroke-linecap:round;stroke-linejoin:round"/><path d="M 262.79999999999995,-300.59999999999997 L 262.8,-286.2 L 253.8,-286.2 L 271.8,-286.2 M 256.5,-281.88 L 269.1,-281.88 M 261,-277.56 L 264.6,-277.56" style="stroke:#000;fill:none;stroke-width:1.5;stroke-dasharray:-;stroke-linecap:round;stroke-linejoin:round"/><path d="M 262.79999999999995,-342.0 L 270.9,-342 L 279,-342" style="stroke:#000;fill:none;stroke-width:1.5;stroke-dasharray:-;stroke-linecap:round;stroke-linejoin:round"/><path d="M 190.79999999999998,-342.0 L 190.8,-330.3 L 199.8,-327.3 L 181.8,-321.3 L 199.8,-315.3 L 181.8,-309.3 L 199.8,-303.3 L 181.8,-297.3 L 190.8,-294.3 L 190.8,-282.6" style="stroke:#000;fill:none;stroke-width:1.5;stroke-dasharray:-;stroke-linecap:round;stroke-linejoin:round"/><path d="M 162.0,-270.0 L 168.3,-270 L 174.6,-270" style="stroke:#000;fill:none;stroke-width:1.5;stroke-dasharray:-;stroke-linecap:round;stroke-linejoin:round"/><path d="M 190.79999999999998,-282.59999999999997 L 230.4,-282.6 L 270,-282.6" style="stroke:#000;fill:none;stroke-width:1.5;stroke-dasharray:-;stroke-linecap:round;stroke-linejoin:round"/><path d="M 126.0,-178.20000000000002 L 126,-91.8" style="stroke:#000;fill:none;stroke-width:1.5;stroke-dasharray:-;stroke-linecap:round;stroke-linejoin:round"/><path d="M 133.20000000000002,-178.20000000000002 L 133.2,-91.8" style="stroke:#000;fill:none;stroke-width:1.5;stroke-dasharray:-;stroke-linecap:round;stroke-linejoin:round"/><path d="M 111.60000000000001,-149.4 L 90.9,-149.4 L 70.2,-149.4" style="stroke:#000;fill:none;stroke-width:1.5;stroke-dasharray:-;stroke-linecap:round;stroke-linejoin:round"/><path d="M 111.60000000000001,-120.60000000000001 L 90.9,-120.6 L 70.2,-120.6" style="stroke:#000;fill:none;stroke-width:1.5;stroke-dasharray:-;stroke-linecap:round;stroke-linejoin:round"/><path d="M 147.6,-178.20000000000002 L 162,-178.2 L 176.4,-178.2" style="stroke:#000;fill:none;stroke-width:1.5;stroke-dasharray:-;stroke-linecap:round;stroke-linejoin:round"/><path d="M 176.39999999999998,-178.20000000000002 L 188.1,-178.2 L 191.1,-187.2 L 197.1,-169.2 L 203.1,-187.2 L 209.1,-169.2 L 215.1,-187.2 L 221.1,-169.2 L 224.1,-178.2 L 235.8,-178.2" style="stroke:#000;fill:none;stroke-width:1.5;stroke-dasharray:-;stroke-linecap:round;stroke-linejoin:round"/><path d="M 235.79999999999995,-178.20000000000002 L 242.1,-178.2 L 248.4,-178.2" style="stroke:#000;fill:none;stroke-width:1.5;stroke-dasharray:-;stroke-linecap:round;stroke-linejoin:round"/><path d="M 248.39999999999995,-178.20000000000002 L 248.4,-160.74 M 257.4,-160.74 L 239.4,-160.74 M 257.4,-154.26 L 239.4,-154.26 M 248.4,-154.26 L 248.4,-136.8" style="stroke:#000;fill:none;stroke-width:1.5;stroke-dasharray:-;stroke-linecap:round;stroke-linejoin:round"/><path d="M 248.39999999999995,-136.8 L 248.4,-122.4 L 239.4,-122.4 L 257.4,-122.4 M 242.1,-118.08 L 254.7,-118.08 M 246.6,-113.76 L 250.2,-113.76" style="stroke:#000;fill:none;stroke-width:1.5;stroke-dasharray:-;stroke-linecap:round;stroke-linejoin:round"/><path d="M 248.39999999999995,-178.20000000000002 L 256.5,-178.2 L 264.6,-178.2" style="stroke:#000;fill:none;stroke-width:1.5;stroke-dasharray:-;stroke-linecap:round;stroke-linejoin:round"/><path d="M 176.39999999999998,-178.20000000000002 L 176.4,-166.5 L 185.4,-163.5 L 167.4,-157.5 L 185.4,-151.5 L 167.4,-145.5 L 185.4,-139.5 L 167.4,-133.5 L 176.4,-130.5 L 176.4,-118.8" style="stroke:#000;fill:none;stroke-width:1.5;stroke-dasharray:-;stroke-linecap:round;stroke-linejoin:round"/><path d="M 147.6,-91.8 L 161.1,-91.8 L 174.6,-91.8" style="stroke:#000;fill:none;stroke-width:1.5;stroke-dasharray:-;stroke-linecap:round;stroke-linejoin:round"/><path d="M 176.39999999999998,-118.80000000000001 L 216,-118.8 L 255.6,-118.8" style="stroke:#000;fill:none;stroke-width:1.5;stroke-dasharray:-;stroke-linecap:round;stroke-linejoin:round"/><path d="M 54.0,-18.0 L 54,-32.4" style="stroke:#000;fill:none;stroke-width:1.5;stroke-dasharray:-;stroke-linecap:round;stroke-linejoin:round"/><path d="M 54.0,-32.4 L 47.25,-32.4" style="stroke:#000;fill:none;stroke-width:1.5;stroke-dasharray:-;stroke-linecap:round;stroke-linejoin:round"/><path d="M 54.0,-32.4 L 60.75,-32.4" style="stroke:#000;fill:none;stroke-width:1.5;stroke-dasharray:-;stroke-linecap:round;stroke-linejoin:round"/><path d="M 54.0,-18.0 L 63,-15 L 45,-9 L 63,-3 L 45,3 L 63,9 L 45,15 L 54,18" style="stroke:#000;fill:none;stroke-width:1.5;stroke-dasharray:-;stroke-linecap:round;stroke-linejoin:round"/><path d="M 53.99999999999999,18.0 L 63,21 L 45,27 L 63,33 L 45,39 L 63,45 L 45,51 L 54,54" style="stroke:#000;fill:none;stroke-width:1.5;stroke-dasharray:-;stroke-linecap:round;stroke-linejoin:round"/><path d="M 53.999999999999986,54.0 L 54,68.4 L 45,68.4 L 63,68.4 M 47.7,72.72 L 60.3,72.72 M 52.2,77.04 L 55.8,77.04" style="stroke:#000;fill:none;stroke-width:1.5;stroke-dasharray:-;stroke-linecap:round;stroke-linejoin:round"/><path d="M 53.99999999999999,18.0 L 73.8,18 L 93.6,18" style="stroke:#000;fill:none;stroke-width:1.5;stroke-dasharray:-;stroke-linecap:round;stroke-linejoin:round"/><path d="M 93.6,18.0 L 93.6,31.86 M 102.6,31.86 L 84.6,31.86 M 102.6,38.34 L 84.6,38.34 M 93.6,38.34 L 93.6,52.2" style="stroke:#000;fill:none;stroke-width:1.5;stroke-dasharray:-;stroke-linecap:round;stroke-linejoin:round"/><path d="M 93.6,52.199999999999996 L 93.6,66.6 L 84.6,66.6 L 102.6,66.6 M 87.3,70.92 L 99.9,70.92 M 91.8,75.24 L 95.4,75.24" style="stroke:#000;fill:none;stroke-width:1.5;stroke-dasharray:-;stroke-linecap:round;stroke-linejoin:round"/><path d="M 53.99999999999999,18.0 L 112.5,18 L 171,18" style="stroke:#000;fill:none;stroke-width:1.5;stroke-dasharray:-;stroke-linecap:round;stroke-linejoin:round"/><path d="M 423.0,48.6 L 595.8,48.6 L 595.8,-30.6 L 423,-30.6 L 423,48.6" style="stroke:#000;fill:none;stroke-width:1.5;stroke-dasharray:-;stroke-linecap:round;stroke-linejoin:round"/><path d="M 423.0,-9.0 L 405,-9" style="stroke:#000;fill:none;stroke-width:1.5;stroke-dasharray:-;stroke-linecap:round;stroke-linejoin:round"/><path d="M 423.0,2.9999999999999973 L 405,3" style="stroke:#000;fill:none;stroke-width:1.5;stroke-dasharray:-;stroke-linecap:round;stroke-linejoin:round"/><path d="M 423.0,15.000000000000004 L 405,15" style="stroke:#000;fill:none;stroke-width:1.5;stroke-dasharray:-;stroke-linecap:round;stroke-linejoin:round"/><path d="M 423.0,27.000000000000004 L 405,27" style="stroke:#000;fill:none;stroke-width:1.5;stroke-dasharray:-;stroke-linecap:round;stroke-linejoin:round"/><path d="M 595.8000000000001,9.0 L 613.8,9" style="stroke:#000;fill:none;stroke-width:1.5;stroke-dasharray:-;stroke-linecap:round;stroke-linejoin:round"/><path d="M 595.8000000000001,27.000000000000004 L 613.8,27" style="stroke:#000;fill:none;stroke-width:1.5;stroke-dasharray:-;stroke-linecap:round;stroke-linejoin:round"/><path d="M 405.0,-9.0 L 398.7,-9 L 392.4,-9" style="stroke:#000;fill:none;stroke-width:1.5;stroke-dasharray:-;stroke-linecap:round;stroke-linejoin:round"/><path d="M 405.0,2.9999999999999973 L 398.7,3 L 392.4,3" style="stroke:#000;fill:none;stroke-width:1.5;stroke-dasharray:-;stroke-linecap:round;stroke-linejoin:round"/><path d="M 405.0,15.000000000000004 L 398.7,15 L 392.4,15" style="stroke:#000;fill:none;stroke-width:1.5;stroke-dasharray:-;stroke-linecap:round;stroke-linejoin:round"/><path d="M 405.0,27.000000000000004 L 395.1,27 L 385.2,27" style="stroke:#000;fill:none;stroke-width:1.5;stroke-dasharray:-;stroke-linecap:round;stroke-linejoin:round"/><path d="M 385.2,27.0 L 385.2,41.4 L 376.2,41.4 L 394.2,41.4 M 378.9,45.72 L 391.5,45.72 M 383.4,50.04 L 387,50.04" style="stroke:#000;fill:none;stroke-width:1.5;stroke-dasharray:-;stroke-linecap:round;stroke-linejoin:round"/><text x="16.2" y="-406.12" fill="#1f4e79" dominant-baseline="central" font-family="sans" font-size="13" text-anchor="start"><tspan x="16.2" dy="13">1. Voltage sensing channel</tspan></text><text x="16.2" y="-387.72" fill="#475569" dominant-baseline="central" font-family="sans" font-size="9" text-anchor="start"><tspan x="16.2" dy="9">230 V AC -&gt; current limiting -&gt; galvanic isolation and scaling -&gt; low-pass filter -&gt; PA0</tspan></text><text x="16.2" y="-233.32" fill="#1f4e79" dominant-baseline="central" font-family="sans" font-size="13" text-anchor="start"><tspan x="16.2" dy="13">2. Current sensing channel</tspan></text><text x="16.2" y="-214.92" fill="#475569" dominant-baseline="central" font-family="sans" font-size="9" text-anchor="start"><tspan x="16.2" dy="9">Load conductor -&gt; SCT-013-030 clamp and internal burden -&gt; low-pass filter -&gt; PA1</tspan></text><text x="16.2" y="-67.72" fill="#1f4e79" dominant-baseline="central" font-family="sans" font-size="13" text-anchor="start"><tspan x="16.2" dy="13">3. Shared ADC bias</tspan></text><text x="16.2" y="-49.32" fill="#475569" dominant-baseline="central" font-family="sans" font-size="9" text-anchor="start"><tspan x="16.2" dy="9">3.3 V divider creates the 1.65 V midpoint used by both channels</tspan></text><text x="338.4" y="-67.72" fill="#1f4e79" dominant-baseline="central" font-family="sans" font-size="13" text-anchor="start"><tspan x="338.4" dy="13">4. Nucleo-F429ZI connections</tspan></text><text x="338.4" y="-49.32" fill="#475569" dominant-baseline="central" font-family="sans" font-size="9" text-anchor="start"><tspan x="338.4" dy="9">Matching PA0/PA1 tags denote the same electrical nets</tspan></text><text x="9" y="-365.12" fill="#000" dominant-baseline="central" font-family="sans" font-size="8" text-anchor="start"><tspan x="9" dy="8">J1: 230 V AC, 50 Hz</tspan></text><text x="82.8" y="-336.4" fill="#000" dominant-baseline="hanging" font-family="sans" font-size="7" text-anchor="middle"><tspan x="82.8" dy="7">R1</tspan><tspan x="82.8" dy="7">100 kΩ, 1 W</tspan></text><text x="115.2" y="-376.32" fill="#000" dominant-baseline="central" font-family="sans" font-size="8" text-anchor="start"><tspan x="115.2" dy="8">T1 ZMPT101B</tspan><tspan x="115.2" dy="8">2 mA : 2 mA isolated</tspan></text><text x="220.5" y="-363.6" fill="#000" dominant-baseline="ideographic" font-family="sans" font-size="9" text-anchor="middle"><tspan x="220.5" dy="9">R5 1 kΩ</tspan></text><text x="262.8" y="-363.6" fill="#000" dominant-baseline="ideographic" font-family="sans" font-size="9" text-anchor="middle"><tspan x="262.8" dy="9">C2</tspan><tspan x="262.8" dy="9">100 nF</tspan></text><text x="319.5" y="-351" fill="#1f4e79" dominant-baseline="central" font-family="sans" font-size="9" text-anchor="middle"><tspan x="319.5" dy="9">PA0 voltage ADC</tspan></text><text x="190.8" y="-286" fill="#000" dominant-baseline="hanging" font-family="sans" font-size="7" text-anchor="middle"><tspan x="190.8" dy="7">R2 burden</tspan><tspan x="190.8" dy="7">330 Ω, 0.1%</tspan></text><text x="296.1" y="-291.6" fill="#1f4e79" dominant-baseline="central" font-family="sans" font-size="9" text-anchor="middle"><tspan x="296.1" dy="9">V_BIAS</tspan></text><text x="439.2" y="-314.8" fill="#475569" dominant-baseline="central" font-family="sans" font-size="8" text-anchor="start"><tspan x="439.2" dy="8">R5 + C2</tspan><tspan x="439.2" dy="8">Anti-alias low-pass</tspan><tspan x="439.2" dy="8">fc ≈ 1.6 kHz</tspan></text><text x="439.2" y="-368.8" fill="#b91c1c" dominant-baseline="central" font-family="sans" font-size="8" text-anchor="start"><tspan x="439.2" dy="8">SAFETY: J1 is mains voltage.</tspan><tspan x="439.2" dy="8">Use rated isolation, protection,</tspan><tspan x="439.2" dy="8">clearances, and enclosure.</tspan></text><text x="16.2" y="-180.8" fill="#000" dominant-baseline="central" font-family="sans" font-size="8" text-anchor="start"><tspan x="16.2" dy="8">J2 — two-pin SCT sensor jack</tspan></text><text x="66.6" y="-162.9" fill="#000" dominant-baseline="central" font-family="sans" font-size="9" text-anchor="end"><tspan x="66.6" dy="9">load conductor</tspan><tspan x="66.6" dy="9">through clamp</tspan></text><text x="206.1" y="-199.8" fill="#000" dominant-baseline="ideographic" font-family="sans" font-size="9" text-anchor="middle"><tspan x="206.1" dy="9">R6 1 kΩ</tspan></text><text x="248.4" y="-199.8" fill="#000" dominant-baseline="ideographic" font-family="sans" font-size="9" text-anchor="middle"><tspan x="248.4" dy="9">C3</tspan><tspan x="248.4" dy="9">100 nF</tspan></text><text x="305.1" y="-187.2" fill="#1f4e79" dominant-baseline="central" font-family="sans" font-size="9" text-anchor="middle"><tspan x="305.1" dy="9">PA1 current ADC</tspan></text><text x="176.4" y="-122.2" fill="#000" dominant-baseline="hanging" font-family="sans" font-size="7" text-anchor="middle"><tspan x="176.4" dy="7">R7 internal</tspan><tspan x="176.4" dy="7">66.7 Ω</tspan></text><text x="281.7" y="-127.8" fill="#1f4e79" dominant-baseline="central" font-family="sans" font-size="9" text-anchor="middle"><tspan x="281.7" dy="9">V_BIAS</tspan></text><text x="424.8" y="-197.4" fill="#475569" dominant-baseline="central" font-family="sans" font-size="8" text-anchor="start"><tspan x="424.8" dy="8">SCT-013-030 external clamp</tspan><tspan x="424.8" dy="8">2000 : 1; 1 V output at 30 A</tspan></text><text x="424.8" y="-165" fill="#475569" dominant-baseline="central" font-family="sans" font-size="8" text-anchor="start"><tspan x="424.8" dy="8">R7 is the internal 66.7 Ω burden.</tspan><tspan x="424.8" dy="8">Do not add a second external burden.</tspan></text><text x="424.8" y="-129" fill="#475569" dominant-baseline="central" font-family="sans" font-size="8" text-anchor="start"><tspan x="424.8" dy="8">R6 + C3 match the voltage-channel</tspan><tspan x="424.8" dy="8">filter to preserve phase alignment.</tspan></text><text x="54" y="-45" fill="#000" dominant-baseline="ideographic" font-family="sans" font-size="9" text-anchor="middle"><tspan x="54" dy="9">3V3</tspan></text><text x="16.2" y="-5.2" fill="#000" dominant-baseline="central" font-family="sans" font-size="7" text-anchor="start"><tspan x="16.2" dy="7">R3 10 kΩ</tspan></text><text x="16.2" y="27.2" fill="#000" dominant-baseline="central" font-family="sans" font-size="7" text-anchor="start"><tspan x="16.2" dy="7">R4 10 kΩ</tspan></text><text x="100.08" y="10.084" fill="#000" dominant-baseline="central" font-family="sans" font-size="14" text-anchor="middle"><tspan x="100.08" dy="14">+</tspan></text><text x="93.6" y="-1.6" fill="#000" dominant-baseline="ideographic" font-family="sans" font-size="8" text-anchor="middle"><tspan x="93.6" dy="8">C1</tspan><tspan x="93.6" dy="8">10 µF</tspan></text><text x="202.5" y="9" fill="#1f4e79" dominant-baseline="central" font-family="sans" font-size="9" text-anchor="middle"><tspan x="202.5" dy="9">V_BIAS 1.65 V</tspan></text><text x="160.2" y="50.7" fill="#475569" dominant-baseline="central" font-family="sans" font-size="7" text-anchor="start"><tspan x="160.2" dy="7">V_BIAS shifts bipolar AC waveforms</tspan><tspan x="160.2" dy="7">into the STM32 ADC&apos;s 0-3.3 V range.</tspan></text><text x="428.4" y="-16" fill="#000" dominant-baseline="central" font-family="sans" font-size="7" text-anchor="start"><tspan x="428.4" dy="7">PA0 (ADC1_IN0)</tspan></text><text x="428.4" y="-4" fill="#000" dominant-baseline="central" font-family="sans" font-size="7" text-anchor="start"><tspan x="428.4" dy="7">PA1 (ADC1_IN1)</tspan></text><text x="428.4" y="8" fill="#000" dominant-baseline="central" font-family="sans" font-size="7" text-anchor="start"><tspan x="428.4" dy="7">3V3</tspan></text><text x="428.4" y="20" fill="#000" dominant-baseline="central" font-family="sans" font-size="7" text-anchor="start"><tspan x="428.4" dy="7">GND</tspan></text><text x="590.4" y="2" fill="#000" dominant-baseline="central" font-family="sans" font-size="7" text-anchor="end"><tspan x="590.4" dy="7">RJ45 (Ethernet)</tspan></text><text x="590.4" y="20" fill="#000" dominant-baseline="central" font-family="sans" font-size="7" text-anchor="end"><tspan x="590.4" dy="7">USB (ST-LINK/VCP)</tspan></text><text x="372.6" y="-17" fill="#1f4e79" dominant-baseline="central" font-family="sans" font-size="8" text-anchor="middle"><tspan x="372.6" dy="8">PA0</tspan></text><text x="372.6" y="-5" fill="#1f4e79" dominant-baseline="central" font-family="sans" font-size="8" text-anchor="middle"><tspan x="372.6" dy="8">PA1</tspan></text><text x="372.6" y="7" fill="#1f4e79" dominant-baseline="central" font-family="sans" font-size="8" text-anchor="middle"><tspan x="372.6" dy="8">3V3</tspan></text><text x="331.2" y="76.6" fill="#475569" dominant-baseline="central" font-family="sans" font-size="8" text-anchor="start"><tspan x="331.2" dy="8">Same-name tags are electrically connected; no long crossing wire is required.</tspan></text><circle cx="190.8" cy="-342" r="2.7" style="stroke:#000;fill:#000;stroke-width:1.5;stroke-dasharray:-"/><circle cx="262.8" cy="-342" r="2.7" style="stroke:#000;fill:#000;stroke-width:1.5;stroke-dasharray:-"/><circle cx="176.4" cy="-178.2" r="2.7" style="stroke:#000;fill:#000;stroke-width:1.5;stroke-dasharray:-"/><circle cx="248.4" cy="-178.2" r="2.7" style="stroke:#000;fill:#000;stroke-width:1.5;stroke-dasharray:-"/><circle cx="54" cy="18" r="2.7" style="stroke:#000;fill:#000;stroke-width:1.5;stroke-dasharray:-"/></svg>